<?xml version="1.0" encoding="UTF-8"?>
<svg id="Layer_2" data-name="Layer 2" xmlns="http://www.w3.org/2000/svg" viewBox="0 0 3060 3060">
  <defs>
    <style>
      .cls-1 {
        fill: none;
        stroke: #8eac2a;
        stroke-miterlimit: 10;
        stroke-width: 60px;
      }

      .cls-2 {
        fill: #eee7db;
      }

      .cls-2, .cls-3, .cls-4 {
        stroke-width: 0px;
      }

      .cls-3 {
        fill: #2d271a;
      }

      .cls-4 {
        fill: #8eac2a;
      }
    </style>
  </defs>
  <g id="FUNDO_CLARO" data-name="FUNDO CLARO">
    <g id="Logo_circular_FALTA_ARRUMAR_PAPEL_DE_PAREDE_" data-name="Logo circular (FALTA ARRUMAR PAPEL DE PAREDE)">
      <g>
        <circle class="cls-1" cx="1530" cy="1530" r="1500"/>
        <g>
          <path class="cls-3" d="M1752.51,2534.51c-35.65,1.17-73.68-5.71-110.33-19.39-38.89-14.51-72.86-36.7-100.26-68.32-6.74-7.78-8.68-7.69-15.66-.26-31.74,33.81-69.88,57.82-113.78,72.23-38.81,12.74-78.89,18.43-119.76,16.55-42.82-1.96-84.5-10.13-124.92-24.65-43.07-15.47-82.7-37.48-119.51-64.31-28.31-20.63-58.35-38.34-88.35-56.21-33.92-20.21-63.38-45.63-90.03-74.69-27.03-29.47-47.31-63.02-63.38-99.35-11.66-26.36-18.51-54.1-22.92-82.45-1.88-12.09-7.38-20.74-17.23-28.46-27.09-21.21-50.5-46.25-71-73.9-20.06-27.05-36.69-56.14-48.81-87.56-10.18-26.37-17.43-53.53-21.94-81.6-4.73-29.46-7.7-58.85-6.48-88.68.91-22.4,4.34-44.45,8.22-66.47,3.03-17.18,6.86-34.12,12.99-50.54,2.08-5.57,1.16-11.62-.94-17.46-9.28-25.82-14.28-52.52-14.58-79.93-.4-36.26,8.44-70.5,23.77-103.23,20.73-44.26,48.87-82.99,85.59-115.37,2.62-2.31,5.07-4.81,7.5-7.32,2.36-2.43,3.07-5.34,2.34-8.7-2.65-12.27-4.57-24.66-6.31-37.1-4.39-31.25-5.64-62.65-5.22-94.15.32-24.16,2.22-48.27,6.69-71.95,4.72-25,11.36-49.59,20.27-73.56,14.5-39.03,34.91-74.63,60.96-106.94,10.52-13.05,21.43-26.06,34.42-36.69,17.12-14.01,29.62-31.16,40.32-50.3,15.27-27.32,34.97-51.5,57.73-72.89,25.31-23.79,53.7-43.44,84.67-59.35,29.32-15.06,60.24-25.72,92-34.13,3.7-.98,7.48-1.85,11.28-2.18,15.9-1.4,26.02-12.7,37.29-21.81,25.45-20.55,53.27-37.03,83.11-50.33,29.85-13.31,60.91-23.04,93.32-26.11,41.9-3.97,83.22-.38,121.33,19.96,18.24,9.73,35.16,21.48,49.6,36.48,7.05,7.33,7.22,7.62,14.79.03,12.42-12.46,26.06-23.25,41.37-31.93,20.55-11.65,42.57-18.73,65.9-22.49,29.14-4.69,58.03-2.47,86.49,3.42,23.85,4.94,47.2,12.18,69.72,22.04,28.33,12.4,54.15,28.91,79.53,46.23,4.02,2.74,7.88,5.91,11.21,9.45,9.37,10,21.49,13.63,34.38,15.89,23.13,4.04,45.25,11.53,66.91,20.35,36.49,14.86,70.03,34.73,100.31,60.04,24.86,20.78,45.77,44.93,63.72,71.91,6.99,10.5,13.16,21.4,19.22,32.37,5.84,10.59,13.48,19.65,22.41,27.46,29.77,26.02,54.08,56.42,74.19,90.34,4.37,7.38,5.43,7.97,13.51,4.26,23.32-10.7,47.99-17.28,72.75-22.98,27.52-6.33,55.48-10.83,83.91-11.45,59.12-1.28,118.25-.42,177.37-.59,33.24-.09,66.47.1,99.71.32,10.71.07,11.03.39,11.15,11.41.35,31.52-2.31,62.74-7.26,93.95-4.51,28.36-11.86,55.9-19.94,83.28-4.04,13.69-9.28,27.17-15.31,40.12-17.61,37.77-38.18,73.86-64.63,106.27-23.07,28.28-49.27,53.26-78.99,74.62-17.35,12.47-35.46,23.51-54.42,33.24-21.78,11.17-44.47,20.12-68,26.83-4.68,1.34-9.05,3.61-14.03,4.15-4.9.53-5.32,3.69-3.35,7.6,3.46,6.86,6.83,13.77,10.36,20.59,12.46,24.08,20.02,49.36,23.59,76.48,4.13,31.37-1.18,61.11-9.46,90.8-6.68,23.94-7.3,24.02.1,46.6,4.06,12.38,6.02,25.09,8.27,37.75,5.03,28.25,7.71,56.73,7.18,85.49-.37,19.96-3.08,39.61-5.69,59.37-3.41,25.82-10.35,50.6-18.36,75.16-3.66,11.23-8.1,22.33-13.38,32.89-10.93,21.83-21.93,43.63-36.61,63.37-20.54,27.63-44.01,52.44-70.07,74.86-.26.23-.52.48-.81.67-13.48,8.63-18.13,21.7-20.59,36.91-4.46,27.61-12.5,54.34-23.86,79.97-12.8,28.9-28.89,55.83-49.12,80.15-24.27,29.17-51.78,54.79-83.5,75.84-20.68,13.73-42.23,25.96-63.69,38.38-15.14,8.77-29.15,19.27-43.42,29.34-29.75,20.98-60.98,39.22-94.3,54.02-30.16,13.39-61.35,22.68-93.74,29.05-24.5,4.81-48.98,7.36-77.49,7.32ZM1659.66,2237.88c-8.45-6.02-16.91-12.03-25.35-18.08-16.82-12.05-31.97-26.05-47.03-40.16-1.46-1.36-2.84-3.5-5.19-2.81-2.66.78-1.97,3.37-1.96,5.32.11,44.03-4.52,88.02-.25,132.09,2.8,28.94,14.03,53.76,33.44,75.05,13.05,14.32,27.97,26.16,45.53,34.77,18.32,8.98,37.43,14.99,57.42,18.85,19.81,3.83,39.74,2.53,59.62,2.18,9.7-.17,19.55-1.58,29.02-3.76,23.09-5.33,45.96-11.15,68.16-20.07,32.04-12.87,61.31-30.15,89.19-50.1,17.32-12.39,34.32-25.2,52.87-35.84,19.66-11.29,39.3-22.57,58-35.58,42.57-29.61,76.06-66.68,97.3-114.2,6.38-14.28,12.27-28.87,15.33-44.34,4.13-20.91,7.7-41.93,9.06-63.22.56-8.82,3.98-15.19,11.55-19.77,14.7-8.89,28.09-19.58,40.91-30.97,16.24-14.42,31.62-29.79,44.55-47.22,24.37-32.85,41.16-69.51,52.58-108.75,3.54-12.16,4.55-24.69,6.91-37.01,3.1-16.18,5.32-32.48,4.87-48.92-.6-21.67-3.58-43.16-7.63-64.45-1.11-5.8-1.52-11.69-3.44-17.44-5.75-17.17-10.22-34.79-19.55-50.58-2.21-3.75-3.15-7.46-.85-11.84,7-13.31,11.04-27.85,16.78-41.68,5.03-12.13,7.5-24.66,8.16-37.62,1.34-26.16-7.64-49.75-20.76-71.39-25.56-42.15-61.75-73.65-103.88-98.59-8.68-5.14-10.06-7.15-8.47-16.56,4.31-25.44,9.21-50.79,12.9-76.32,2.75-19,7.12-37.66,8.83-56.91,4.05-45.53-.95-90.05-12.52-133.89-8.6-32.58-22.44-63.15-41.77-90.82-15.23-21.8-32.1-42.36-53.8-58.34-11.95-8.8-21.61-19.15-27.85-33.25-10.37-23.43-25.06-44.35-41.94-63.64-25.25-28.86-55.6-50.67-90.7-66.11-27.67-12.17-56.16-21.66-86.46-22.99-12.99-.57-22.32-5.01-31.21-13.94-32.23-32.38-70.19-56.04-113.28-71.09-25.2-8.8-50.77-13.71-77.92-8.11-34.06,7.02-67.64,36.31-77.45,76.88-3.9,16.14-3.79,32.59-3.81,48.96-.19,162.66-.24,325.32-.11,487.98.01,13.91.53,27.93,4.96,41.41,16.82,51.27,66.7,74.98,114.59,63.5,4.73-1.13,9.64-1.51,14.46-2.24.88,10.05,6.41,18.78,8.1,28.6-4.69,1.4-9.47,2.34-14.28,3.26-23.45,4.5-44.3,14.44-61.92,30.74-23.9,22.11-39.44,49.57-50.08,79.89-11.9,33.9-17.05,69.08-17.02,104.93.08,97.9.34,195.8.8,293.7.13,26.92,2.5,53.54,10.17,79.69,7.86,26.82,19.75,51.54,36.15,73.87,19.4,26.41,43.08,48.5,71.73,64.94,28.69,16.47,59.07,28.42,91.85,33.23,29.51,4.33,59.23,4.05,88.89,1.18q8.36,2.58,8.91,11.03c1.24,19.91-.17,39.88,1.56,59.78,1.12,12.99-.73,15.01-13.95,16.14-1.74.15-3.5.09-5.25.11-13.64.11-27.29.05-40.93.34-33.44.72-66.23-3.78-98.46-12.44-24.35-6.54-47.54-16.18-70.09-27.37ZM1171.47,2184.43c5.58.16,11.17.11,16.74.51,44.92,3.19,88.45-3.21,130.46-19.33,59.44-22.81,106.55-60.46,137.94-116.5,12.86-22.95,21.71-47.38,26.65-73.34,3.76-19.73,4.41-39.58,4.45-59.49.17-87.1.2-174.2.21-261.3,0-27.64-1.68-55.03-7.77-82.21-7.02-31.29-17.17-61.22-34.77-88.05-16.61-25.32-37.54-46.08-67.7-55.01-13.34-3.95-26.79-7.55-40.2-11.31-.79-10.29,2.25-20.32,2.07-30.57,21.32,6.8,42.77,12.21,65.55,10.23,25.88-2.24,46.7-13.28,62.34-33.94,14.45-19.09,20.53-40.98,20.59-64.66.13-58.07.2-116.13.17-174.2-.05-110.19-.05-220.37-.35-330.56-.08-28.47-6.02-55.48-23.96-78.62-14.1-18.18-31.97-31-54.38-36.8-22.95-5.94-45.92-3.82-68.29,2.53-31.77,9.01-60.8,24.05-88.05,42.68-17.4,11.89-32.61,26.3-48.24,40.26-4.34,3.88-8.92,6.38-14.9,6.68-21.05,1.05-41.45,5.37-61.37,12.29-42.77,14.87-81.43,36.54-113.74,68.64-21.78,21.64-38.61,46.84-51.99,74.38-4.36,8.97-9.91,16.77-18.02,22.74-33.5,24.63-59.55,55.81-79.7,91.96-26.84,48.17-39.72,100.16-41.71,155.1-1.53,42.21,5.53,83.46,12.88,124.73,3.6,20.23,7.01,40.51,9.28,60.96.54,4.86-.66,8.28-5.15,10.15-8.47,3.53-15.75,9.03-23.18,14.18-38.75,26.9-71.72,58.91-90.57,103.35-10.31,24.3-12.93,49.16-6.36,74.78,4.69,18.3,12.3,35.54,20.63,52.39,3.16,6.39,3.88,11.72-.6,17.39-2.85,3.61-4.41,7.88-6.23,12.04-12.62,28.81-17.96,59.36-21.02,90.33-2.72,27.57-1.25,54.99,2.2,82.59,5.52,44.19,20.56,84.64,43.91,122.02,24.83,39.75,58.58,70.94,97.62,96.48,8.24,5.39,13.42,11.82,13.51,22.01.16,17.85,3.75,35.24,6.98,52.75,8.98,48.8,30.88,90.78,64.46,126.99,24.26,26.16,52.88,46.57,83.83,63.89,24.43,13.67,47.99,28.68,70.39,45.41,51.78,38.67,108.49,65.72,173.14,74.14,36,4.69,71.64,3.99,106.69-7.29,29.85-9.6,56.42-24.14,77.48-47.78,18.12-20.34,29.5-43.82,33.32-70.94,1.37-9.75,1.83-19.48,1.78-29.28-.2-37.78-.35-75.55-.66-113.32-.03-3.56.62-7.51-1.9-10.6-4.52.61-6.46,3.82-8.95,6.09-11.65,10.59-23.77,20.6-36.38,30.02-11.16,8.33-23.22,15.4-33.79,24.53-2.18.09-3.95,1.19-5.8,2.21-42.53,23.47-88.32,35.91-136.42,41.03-27.55,2.93-55.14,1.84-82.73,1.96-11.26.05-11.94-.83-11.77-12.01.38-24.43.93-48.86,1.4-73.3ZM2343.66,1351.97c5.34.49,10.9-2.06,16.71-3.16,32.41-6.16,63.67-15.88,92.44-32.31,41.54-23.73,76.44-55.1,105-93.46,24.8-33.31,43.86-69.75,57.85-108.8,6.48-18.08,11.97-36.52,15.08-55.53,1.63-9.98,1.11-10.4-8.44-10.41-54.22-.04-108.44-.31-162.65.18-21.29.19-42.47,2.62-63.47,6.82-13.74,2.75-27.16,6.62-40.62,10.24-12.09,3.25-23.77,8.17-35.45,12.81-6.72,2.67-7.1,4.11-5.3,11.26,3.57,14.21,7.27,28.32,7.96,43.15.47,10.13,3.17,11.3,11.66,7.31,9.79-4.6,19.33-9.76,29.3-13.94,11.94-5,23.73-9.04,37.33-3.48,17.99,7.35,30.54,25.92,29.02,45.26-1.32,16.78-10.44,28.07-24.69,35.13-20.96,10.38-42.01,20.78-63.77,29.25-10.18,3.96-14.96,9.13-15.05,19.46,0,.7-.09,1.4-.17,2.09-2.71,24.98-4.3,50.11-9.97,74.7-.63,2.73-1.44,6.16.5,8.13,7.23,7.36,13.84,16.14,26.73,15.29Z"/>
          <g>
            <path class="cls-2" d="M1337.46,1418.38c13.4,3.76,26.85,7.36,40.2,11.31,30.16,8.93,51.09,29.69,67.7,55.01,17.6,26.83,27.75,56.76,34.77,88.05,6.1,27.19,7.77,54.58,7.77,82.21,0,87.1-.03,174.2-.21,261.3-.04,19.91-.69,39.76-4.45,59.49-4.94,25.96-13.8,50.39-26.65,73.34-31.39,56.04-78.49,93.69-137.94,116.5-42.01,16.12-85.54,22.52-130.46,19.33-5.56-.4-11.16-.35-16.73-.51-15.12-4.1-30.66-6.08-46.09-8.48-15.57-2.42-30.87-5.62-45.62-11.13-10.61-3.96-19.82-10.76-22.95-21.57-8.46-29.27,10.02-52.95,41.2-50.33,15.38,1.29,29.72,6.92,45.01,8.84,30.12,3.78,60.08,8.8,90.54,5.02,14.51-1.8,29.17-3.22,43.16-7.7,29.6-9.48,56.01-24.27,79.64-44.91,22.96-20.06,36.85-45.3,47.37-72.92,5.26-13.8,6.66-28.44,6.65-43.28-.11-100.71-.05-201.43,0-302.14,0-10.86-.8-21.64-2.27-32.39-3.77-27.63-10.76-54.25-26.92-77.45-14.51-20.83-34.79-29.39-60.03-25.5-15.58,2.4-30.33,7.13-44.84,13.63-27.75,12.43-52.37,29.12-74.6,49.65-17.09,15.79-30.98,34.25-42.86,54-13.34,22.2-23.49,45.85-28.94,71.53-5.48,25.82-5.37,52.02-7.39,78.08-1.17,15.03,1.16,30.01,2.07,44.97,1.22,20.09,6.42,39.32,18.45,55.92,7.76,10.72,18.11,18.59,30.95,22.17,22.75,6.34,44.28,2.5,64.48-9.36,9.98-5.85,19.16-12.85,27.51-20.84,4.4-4.21,9.37-7.43,14.91-9.56,10.35-3.98,21.11-6.43,31.26.09,12.28,7.89,20.64,18.02,20.52,34.11-.11,13.64-6.22,23.24-15.93,31.5-22.42,19.06-45.98,36.34-73.69,47.13-1.72.26-3.47.4-5.15.81-24.41,5.85-48.72,7.03-73.58,1.66-27.58-5.96-50.5-19.31-69.97-39.26-12.07-12.36-21.11-26.73-28.53-42.27-4.07-8.51-6.73-9.57-14.73-5.75-31.23,14.9-57.31,35.66-75.09,66-14.31,24.42-22.96,50.77-27.02,78.57-2.57,17.57-5.39,35.25-2.78,53.15,1.58,13.44,2.52,26.89,5.31,40.25,8.03,38.46,26.11,70.93,54.04,98.51,17.34,17.13,37.03,30.71,58.1,42.47,24.39,13.61,48.16,28.14,70.73,44.63,15.19,11.1,30.57,21.97,47.17,30.97,32.5,17.6,66.55,30.31,103.58,34.51,26.73,3.03,53.05,2.37,78.28-7.66,25.43-10.11,44.27-26.51,47.88-55.67.38-3.11.76-6.24.76-9.36.01-12.93.74-25.94-.47-38.76-1-10.62.3-21.76-4.8-31.81,10.57-9.14,22.64-16.21,33.79-24.54,12.62-9.42,24.73-19.43,36.38-30.02,2.49-2.26,4.42-5.48,8.95-6.09,2.52,3.09,1.88,7.05,1.9,10.6.3,37.77.46,75.55.66,113.32.05,9.8-.4,19.53-1.78,29.28-3.82,27.12-15.2,50.6-33.32,70.94-21.06,23.64-47.63,38.18-77.48,47.78-35.05,11.28-70.69,11.98-106.69,7.29-64.65-8.42-121.36-35.46-173.14-74.14-22.4-16.73-45.97-31.74-70.39-45.41-30.94-17.32-59.57-37.73-83.83-63.89-33.58-36.21-55.47-78.19-64.46-126.99-3.22-17.51-6.81-34.89-6.98-52.75-.09-10.2-5.28-16.63-13.51-22.01-39.04-25.54-72.79-56.73-97.62-96.48-23.35-37.38-38.4-77.83-43.91-122.02-3.45-27.6-4.92-55.02-2.2-82.59,3.06-30.97,8.4-61.53,21.02-90.33,1.82-4.15,3.39-8.43,6.23-12.04,4.48-5.68,3.76-11,.6-17.39-8.32-16.85-15.94-34.1-20.63-52.39-6.57-25.62-3.95-50.48,6.36-74.78,18.86-44.43,51.82-76.45,90.57-103.35,7.42-5.15,14.7-10.66,23.18-14.18,4.5-1.87,5.69-5.3,5.15-10.15-2.27-20.45-5.67-40.73-9.28-60.96-7.35-41.27-14.42-82.52-12.88-124.73,1.99-54.95,14.87-106.93,41.71-155.1,20.14-36.15,46.2-67.33,79.7-91.96,8.12-5.97,13.67-13.77,18.02-22.74,13.37-27.54,30.2-52.74,51.99-74.38,32.31-32.1,70.97-53.77,113.74-68.64,19.91-6.93,40.32-11.25,61.37-12.29,5.98-.3,10.56-2.8,14.9-6.68,15.62-13.96,30.84-28.37,48.24-40.26,27.26-18.63,56.28-33.67,88.05-42.68,22.38-6.35,45.34-8.47,68.29-2.53,22.42,5.8,40.29,18.63,54.38,36.8,17.95,23.14,23.89,50.15,23.96,78.62.29,110.19.3,220.37.35,330.56.02,58.07-.04,116.13-.17,174.2-.05,23.68-6.13,45.57-20.59,64.66-15.64,20.66-36.46,31.7-62.34,33.94-22.79,1.97-44.23-3.44-65.55-10.23-7.33-3.27-13.1-8.91-19.8-13.1-33.51-20.94-61.34-48.44-88.63-76.56-2.41-2.48-4.34-5.47-6.22-8.4-6.84-10.65-7.69-26.17,3.1-39.54,16.36-20.26,42.85-20.36,59.18-5.73,5.98,5.36,11.74,11.01,17.19,16.9,17.88,19.33,37.56,36.5,59.81,50.63,7.11,4.52,14.68,7.76,23.07,9.36,16.5,3.13,21.84-.79,23.08-17.51,1.14-15.39-.1-30.76-.09-46.15.08-151.47,0-302.93.1-454.4,0-9.13-.76-18.17-1.73-27.18-1.44-13.44-17.36-27.08-30.33-25.26-8.17,1.14-16.54,2.63-24.25,6.1-20.77,9.34-40.49,20.55-59.21,33.52-1.43.99-2.78,2.12-4.11,3.25-3.85,3.28-4.49,6.9-1.06,10.89,1.37,1.59,2.76,3.16,4.19,4.69,29.51,31.52,42.58,69.85,45.71,112.03,1.71,23.04.94,46.17-.13,69.23-.5,10.76-1.86,21.63-4.29,32.11-10.61,45.77-36.57,81.51-72.77,110.71-18.78,15.15-39.28,27.85-58.13,42.88-42.4,33.81-72.48,76.15-90.56,127.25-8.77,24.78-14.07,50.32-17.16,76.28-1.65,13.83-1.6,28.03,3.12,41.48,12.17,34.64,44.3,48.27,77.17,47.18,13.02-.43,25.22-5.01,36.95-10.64,22.32-10.7,44.3-22.1,68.47-28.48,18.22-4.81,36.48-9.11,55.26-10.97ZM1066.57,1619.37c2.17,2.15,3.67.78,5.11-.97,3.96-4.81,7.29-10.01,10.31-15.48,7.06-12.82,13.75-25.83,22.52-37.72,4.07-5.51,8.51-10.78,12.35-16.48,5.81-8.6,5.65-9.39-3.42-13.76-3.77-1.81-7.61-3.5-11.34-5.38-52.65-26.61-80.73-69.27-82.42-128.36-1.09-37.98,5.93-74.93,17.36-111.07,16.46-52.05,43.43-97.96,80.26-138.25,12.25-13.4,26.28-25.06,37.68-39.25,6.98-1.38,13.06-4.78,18.91-8.59,15.82-10.28,31.13-21.32,45.56-33.45,21.09-17.71,36.91-38.68,41.44-67.02,3.17-19.85,2.1-39.71,2.58-59.58.37-15.52-1.76-30.58-6.42-45.41-11.04-35.13-40.22-58.58-82.32-49.93-30.98,6.36-58.51,20.27-83.94,38.86-26.87,19.64-47.68,43.86-59.09,75.53-.94,2.61-2.35,5.06-3.52,7.59-7.15,15.54-20.1,25.51-33.4,35.28-41.57,30.52-68.04,71.43-81.9,120.72-3.87,13.75-6.25,27.84-8.19,42.07-4.63,33.91-3.79,67.71,1.92,101.22,4.16,24.4,6.87,49.05,12.18,73.25,1.81,8.22,2.53,17.06,9.49,23.26l-1.61,38.65c-8.55,13.89-16.01,28.52-29.28,38.97-9.61,7.56-19.88,14.1-29.95,20.97-12.37,8.44-25.12,16.38-35.67,27.22-11.42,11.73-23.35,22.83-31.58,37.45-8.32,14.79-8.69,40.13,4.42,55.08,7.1,8.09,16.12,13.35,25.81,17.41,25.95,10.87,53.5,15.21,81.04,19.8,15.57,2.6,31.28,2.06,46.89,3.56,17.71,1.7,35.59,1.46,53.36-.02,18.34-1.53,36.74-2.55,54.85-6.16ZM1046.7,1750c.2,0,.4,0,.6,0,0-11.19.12-22.38-.03-33.56-.15-10.9-1.9-12.5-13.08-12.77-2.1-.05-4.2-.04-6.29-.03-34.94.23-69.84.24-104.69-3.41-23.95-2.51-47.81-5.29-71.37-10.36-7.85-1.69-15.62-3.63-23.39-5.66-10.73-2.81-14.24-1.23-20.16,7.99-5.53,8.6-8.93,18.14-11.67,27.9-9.68,34.51-10.74,69.73-6.5,104.96,6.87,57.07,33.01,104.6,74.6,143.88,1.5,1.42,3.17,2.79,5,3.73,6.33,3.28,8.41,2.68,11.62-3.65,1.73-3.41,3.06-7.05,4.31-10.67,10.91-31.8,27.71-60.37,49.77-85.47,26.88-30.58,58.98-54.5,97.59-68.55,9.9-3.6,13.63-10.08,13.69-19.73.07-11.53.02-23.07.02-34.61Z"/>
            <path class="cls-2" d="M1877.89,2190.3c-29.68,2.87-59.4,3.15-88.91-1.18-32.78-4.8-63.16-16.76-91.85-33.23-28.65-16.45-52.33-38.53-71.73-64.94-16.4-22.32-28.28-47.05-36.15-73.87-7.67-26.14-10.04-52.77-10.17-79.69-.46-97.9-.72-195.8-.8-293.7-.03-35.85,5.12-71.03,17.02-104.93,10.65-30.32,26.19-57.78,50.08-79.89,17.62-16.3,38.47-26.25,61.92-30.74,4.82-.92,9.59-1.86,14.28-3.26,3.27,2.91,7.33,1.69,11.05,1.98,15.66,1.21,31.24,2.97,46.47,6.97,25.13,6.6,48.5,17.63,71.61,29.17,9.17,4.58,18.41,7.89,28.76,8.94,34.67,3.54,62.47-7.11,81.71-37.28,3.66-5.73,6.81-11.57,7.27-18.28,1.06-15.37,1.62-30.88-.8-46.08-5.87-36.76-16.74-71.88-34.08-105.14-21.47-41.19-51.22-74.71-89.05-101.26-24.33-17.08-48.63-34.09-68.93-56.14-14.82-16.09-26.55-34.14-35.49-54-9.31-20.7-13.08-42.62-13.23-65.25-.12-19.24-.14-38.44,2.44-57.58,4.79-35.59,16.07-68.54,38.07-97.44,5.09-6.68,10.4-13.13,15.91-19.45,5.67-6.51,5.4-9-.51-15.19-.96-1-2.11-1.81-3.21-2.67-21.85-17.21-46.43-29.69-71.4-41.54-6.81-3.23-13.95-4.39-21.36-4.44-17.6-.12-27.48,8.34-29.6,25.9-.96,7.97-1.57,16.03-1.59,24.05-.13,56.31-.02,112.62-.05,168.93-.06,107.37-.14,214.74-.29,322.11,0,6.71.75,13.28,2.19,19.76,1.99,9,6.9,12.68,16.16,13.56,10.2.97,19.25-2.41,28.22-6.52,22.78-10.43,39.98-27.78,56.75-45.66,4.78-5.1,9.18-10.6,14.33-15.29,7.81-7.13,16.36-13.25,27.56-13.69,15.45-.61,26.72,2.96,35.12,17.51,8.88,15.4,7.04,28.38-2.8,40.81-5.63,7.11-11.77,13.83-18,20.44-10.07,10.68-21.05,20.42-32,30.2-16.24,14.52-33.49,27.35-53.65,36-5.37,2.31-10.45,5.29-15.66,7.97-4.82.73-9.73,1.1-14.46,2.24-47.89,11.48-97.77-12.23-114.59-63.5-4.42-13.49-4.95-27.51-4.96-41.41-.13-162.66-.08-325.32.11-487.98.02-16.37-.1-32.83,3.81-48.96,9.81-40.57,43.39-69.86,77.45-76.88,27.15-5.59,52.72-.68,77.92,8.11,43.1,15.05,81.06,38.71,113.28,71.09,8.89,8.93,18.22,13.37,31.21,13.94,30.3,1.33,58.79,10.82,86.46,22.99,35.1,15.44,65.45,37.25,90.7,66.11,16.88,19.29,31.57,40.22,41.94,63.64,6.24,14.1,15.9,24.44,27.85,33.25,21.7,15.98,38.57,36.54,53.8,58.34,19.33,27.67,33.17,58.24,41.77,90.82,11.57,43.84,16.57,88.36,12.52,133.89-1.71,19.25-6.09,37.92-8.83,56.91-3.69,25.53-8.6,50.88-12.9,76.32-1.59,9.41-.22,11.42,8.47,16.56,42.13,24.94,78.33,56.44,103.88,98.59,13.12,21.64,22.1,45.23,20.76,71.39-.67,12.96-3.13,25.49-8.16,37.62-5.74,13.83-9.78,28.37-16.78,41.68-2.3,4.37-1.37,8.09.85,11.84,9.32,15.79,13.79,33.41,19.55,50.58,1.93,5.75,2.34,11.63,3.44,17.44,4.06,21.29,7.04,42.78,7.63,64.45.45,16.44-1.77,32.74-4.87,48.92-2.36,12.32-3.37,24.85-6.91,37.01-11.43,39.24-28.21,75.89-52.58,108.75-12.93,17.43-28.31,32.8-44.55,47.22-12.82,11.39-26.21,22.07-40.91,30.97-7.58,4.59-10.99,10.96-11.55,19.77-1.36,21.29-4.92,42.31-9.06,63.22-3.06,15.47-8.94,30.07-15.33,44.34-21.24,47.52-54.73,84.59-97.3,114.2-18.7,13.01-38.34,24.29-58,35.58-18.55,10.65-35.54,23.45-52.87,35.84-27.89,19.95-57.16,37.23-89.19,50.1-22.2,8.92-45.07,14.74-68.16,20.07-9.47,2.18-19.32,3.59-29.02,3.76-19.88.35-39.81,1.65-59.62-2.18-19.98-3.86-39.1-9.86-57.42-18.85-17.56-8.61-32.48-20.45-45.53-34.77-19.41-21.29-30.64-46.11-33.44-75.05-4.26-44.08.36-88.07.25-132.09,0-1.95-.7-4.54,1.96-5.32,2.35-.69,3.74,1.45,5.19,2.81,15.06,14.11,30.21,28.11,47.03,40.16,8.44,6.04,16.9,12.05,25.34,18.07-3.81,23.16-5.05,46.36-2.45,69.8,1.88,16.94,9.12,30.24,22.54,40.87,16.95,13.42,36.91,18.31,57.44,20.29,31.75,3.06,62.71-3.01,92.68-13.03,32.71-10.94,62.04-28.59,89.48-49.28,18.7-14.1,38.33-26.66,58.55-38.47,21.94-12.81,44.69-24.14,64.37-40.89,17.47-14.86,32.55-31.46,45.59-50.09,10.33-14.75,16.39-31.57,22.21-48.42,4.97-14.39,6.62-29.23,4.72-44.39,3.15-3.05,2.68-7.06,2.7-10.84.13-25.57-2.37-50.76-9.65-75.43-5.96-20.2-13.89-39.37-26.12-56.65-17.57-24.81-40.9-42.65-67.58-56.58-13.03-6.8-14.78-6.53-20.97,7.11-9.52,20.96-22.81,39.05-39.66,54.7-22.52,20.92-49.86,31.07-79.46,36.44.32-1.42-.67-1.59-1.58-1.38-.89.2-1.76.74-.89,1.91-4.18.19-8.37.24-12.53.59-12.68,1.07-24.85-3.49-37.45-3.3-7.94-2.98-16.23-4.94-23.91-8.68-16.3-7.93-33.3-14.45-48.03-25.44-11.79-8.8-17.03-21.15-15.77-34.76,2.49-26.87,34.88-43.35,57.55-29.23,18.35,11.42,37.49,21.87,59.91,23.51,11.99.88,24.09.27,34.78-4.91,19.64-9.52,33.41-25.48,41.04-45.72,7.78-20.62,12.29-42.08,12.43-64.42.15-24.85-1.7-49.48-4.44-74.17-4.17-37.6-16.71-72.13-37.11-103.58-17.6-27.13-39.81-50.2-66.23-69.28-24.63-17.79-50.91-32.07-80.61-38.55-18.77-4.1-37.6-3.17-53.79,9.83-8.59,6.89-15.42,15.19-20.64,24.78-12.63,23.17-18.46,48.36-19.16,74.41-1.78,66.78-.4,133.59-.67,200.39-.18,46.86-.02,93.73.24,140.59.19,33.17,10.57,63.03,29.92,89.94,19.67,27.35,46.33,45.32,77.28,57.03,19.7,7.45,40.72,9.32,61.66,10.6,22.41,1.37,44.71.35,66.7-4.3,10.9-2.31,22.04-4,32.35-8.38,8.73-3.7,17.78-6.37,26.86-8.7,19.33-4.96,38.33,5.21,45.43,24.42,6.36,17.21.57,38.04-17.75,47.54-26.09,13.53-53.99,20.4-82.69,25.34-6.49,1.12-13.04-3-19.08,1.22ZM2001.23,1618.95c3.21,1.78,6.83.71,10.22,1.51,17.72,4.18,35.81,5.31,53.92,5.99,33.9,1.29,67.64-.37,101.34-4.48,20.84-2.54,41.4-5.42,61.24-12.79,10.98-4.08,21.16-9.1,29.74-17.04,10.36-9.59,15.48-22.21,14.5-35.68-.93-12.85-6.63-24.99-14.68-35.4-15.27-19.78-33.66-36.2-54.41-50.14-12.16-8.17-24.55-16.28-35.43-26-13.96-12.48-25.92-26.94-31.21-45.64-1.12-14.31-.76-28.64-.52-42.96,8.49-10.86,9.42-24.39,12.86-36.99,2.65-9.71,2.05-20.15,4.31-29.77,4.5-19.13,7.13-38.46,8.26-57.9,1.49-25.47.78-50.99-3.84-76.26-6.23-34.06-17.41-66.11-36.78-95.1-11.58-17.33-26.31-31.52-42.26-44.73-5.42-4.49-11.44-7.97-17.03-12.14-14.07-10.47-21.95-24.92-27.56-41.11-4.13-11.93-9.84-23.27-17.57-33.26-25.38-32.79-57.17-57.02-96.15-71.86-18.68-7.11-37.52-10.75-57.45-7.89-3.53.51-6.78,1.45-9.94,3.05-19.67,9.98-32.55,25.71-40.44,46.15-5.1,13.21-7,26.91-8.94,40.78-3.47,24.78-3.45,49.4,1.91,73.85,2.1,9.57,5.68,18.8,11.7,26.73,22.93,30.22,51.29,53.7,86.28,68.85.54,6.98,5.59,10.81,10.41,14.73,14.34,11.68,28.17,23.7,40.5,37.77,40.92,46.7,67.61,100.52,82.21,160.42,6.11,25.07,9.52,50.78,9.76,76.68.38,41.94-14.72,77.54-44.71,106.95-14.21,13.93-30.84,23.76-49.01,31.48-9.87,4.19-10.67,7.41-4.17,15.49,14.75,18.35,25.83,38.89,36.49,59.71,4.69,9.16,5.28,9.49,16.49,6.98ZM2279.34,1781.72c.36-5.13-1.18-15.17-2.03-25.26-1.75-20.82-8.67-40.2-16.78-59.14-3.81-8.88-9.66-11.12-19.72-9.23-7.19,1.35-14.24,3.52-21.45,4.67-27.51,4.39-54.94,9.19-82.81,11.23-30.36,2.23-60.62,2.39-90.95,0-8.34-.66-16.76-.17-25.15-.25-4.35-.04-6.41,2.18-6.53,6.38-.08,2.79-.04,5.59-.1,8.38-.41,22.03,2.17,43.95,2.35,65.95.09,10.93,5.09,17.82,14.73,21.78,26,10.67,50.34,23.95,71.35,43,18.19,16.49,34.77,34.33,48.18,54.89,11.47,17.59,20.23,36.6,27.71,56.23,6.52,17.1,12.62,14.15,22.37,4.91,21.96-20.82,40.88-43.67,53.84-71.37,15.92-34.04,24.63-69.55,24.99-112.17Z"/>
          </g>
          <g>
            <path class="cls-4" d="M1243.05,1963.53c27.71-10.79,51.27-28.07,73.69-47.13,9.72-8.26,15.82-17.86,15.93-31.5.13-16.09-8.24-26.22-20.52-34.11-10.15-6.52-20.92-4.07-31.26-.09-5.53,2.13-10.51,5.35-14.91,9.56-8.34,7.99-17.53,14.99-27.51,20.84-20.2,11.85-41.73,15.7-64.48,9.36-12.85-3.58-23.2-11.46-30.95-22.17-12.02-16.6-17.22-35.83-18.45-55.92-.91-14.97-3.24-29.94-2.07-44.97,2.03-26.06,1.91-52.25,7.39-78.08,5.45-25.68,15.6-49.33,28.94-71.53,11.87-19.76,25.76-38.22,42.86-54,22.23-20.53,46.85-37.22,74.6-49.65,14.52-6.5,29.26-11.23,44.84-13.63,25.24-3.89,45.51,4.67,60.03,25.5,16.17,23.2,23.15,49.82,26.92,77.45,1.47,10.75,2.27,21.53,2.27,32.39-.05,100.71-.11,201.43,0,302.14.02,14.83-1.39,29.48-6.65,43.28-10.52,27.62-24.41,52.86-47.37,72.92-23.64,20.64-50.04,35.44-79.64,44.91-13.99,4.48-28.65,5.91-43.16,7.7-30.46,3.78-60.42-1.24-90.54-5.02-15.3-1.92-29.64-7.55-45.01-8.84-31.18-2.62-49.66,21.06-41.2,50.33,3.12,10.81,12.34,17.61,22.95,21.57,14.75,5.51,30.06,8.71,45.62,11.13,15.43,2.4,30.97,4.38,46.09,8.48-.48,24.43-1.03,48.86-1.41,73.3-.17,11.18.51,12.06,11.77,12.01,27.58-.12,55.17.97,82.73-1.96,48.09-5.12,93.89-17.56,136.42-41.03,1.84-1.02,3.62-2.12,5.79-2.21,5.1,10.05,3.8,21.19,4.8,31.81,1.21,12.82.48,25.83.47,38.76,0,3.12-.38,6.26-.76,9.36-3.6,29.16-22.44,45.56-47.88,55.67-25.23,10.02-51.55,10.69-78.28,7.66-37.03-4.2-71.07-16.91-103.58-34.51-16.61-8.99-31.98-19.86-47.17-30.97-22.57-16.5-46.34-31.03-70.73-44.63-21.07-11.75-40.76-25.34-58.1-42.47-27.92-27.58-46.01-60.05-54.04-98.51-2.79-13.36-3.73-26.81-5.32-40.26,2.96.95,5.82,1.94,9.1,1.62,20.22-1.94,37.34-9.21,49.97-26.1,10.49-14.02,19.38-28.97,28.37-43.93,6.31-10.5,6.97-8.89,13.95-3.19,2.16,1.76,4.54,3.25,6.79,4.9,16.39,12.04,33.77,22.28,53.07,28.99,40.98,14.25,83.21,16.64,126.03,13.07,9.13-.76,9.21-.94,9.26-9.69.15-26.19.22-52.39.32-78.58Z"/>
            <path class="cls-4" d="M2114.79,2084.26c1.9,15.17.25,30-4.72,44.39-5.82,16.85-11.89,33.67-22.21,48.42-13.04,18.63-28.12,35.22-45.59,50.09-19.68,16.74-42.43,28.08-64.37,40.89-20.21,11.8-39.85,24.36-58.55,38.47-27.45,20.69-56.77,38.34-89.48,49.28-29.96,10.02-60.93,16.09-92.68,13.03-20.53-1.98-40.49-6.87-57.44-20.29-13.42-10.62-20.66-23.93-22.54-40.87-2.6-23.44-1.36-46.64,2.45-69.8,22.56,11.2,45.75,20.83,70.1,27.37,32.23,8.66,65.01,13.16,98.46,12.44,13.64-.29,27.29-.24,40.93-.34,1.75-.01,3.51.04,5.25-.11,13.22-1.13,15.08-3.14,13.95-16.14-1.72-19.9-.31-39.87-1.56-59.78q-.53-8.45-8.9-11.03c6.05-4.22,12.6-.1,19.09-1.22,28.7-4.95,56.6-11.81,82.69-25.34,18.33-9.5,24.12-30.33,17.75-47.54-7.1-19.2-26.1-29.38-45.43-24.42-9.08,2.33-18.13,5-26.86,8.7-10.31,4.37-21.45,6.07-32.35,8.38-22,4.66-44.29,5.67-66.7,4.3-20.95-1.28-41.96-3.14-61.66-10.6-30.94-11.7-57.61-29.68-77.28-57.03-19.36-26.92-29.73-56.77-29.92-89.94-.27-46.86-.43-93.73-.24-140.59.26-66.8-1.11-133.61.67-200.39.69-26.05,6.53-51.23,19.16-74.41,5.23-9.59,12.06-17.89,20.64-24.78,16.2-13,35.02-13.94,53.79-9.83,29.7,6.49,55.98,20.77,80.61,38.55,26.42,19.08,48.63,42.14,66.23,69.28,20.4,31.45,32.94,65.98,37.11,103.58,2.74,24.69,4.59,49.32,4.44,74.17-.14,22.34-4.65,43.8-12.43,64.42-7.64,20.24-21.4,36.2-41.04,45.72-10.7,5.18-22.79,5.79-34.78,4.91-22.42-1.64-41.56-12.09-59.91-23.51-22.68-14.11-55.06,2.36-57.55,29.23-1.26,13.61,3.98,25.97,15.77,34.76,14.73,10.99,31.73,17.51,48.03,25.44,7.68,3.74,15.97,5.7,23.92,8.68-2.92,1.99-3.4,4.94-3.44,8.22-.27,22.36.33,44.73-1.55,67.07-.7,8.28.87,9.41,9.81,9.48,14.34.1,28.7.37,43-.37,19.53-1.01,39.01-2.94,57.99-8.1,16.15-4.4,31.63-10.42,46.51-18.18,11.5-6,22.86-12.19,31.97-21.5,4.22-4.31,9.53-6.96,13.81-11.05,2.98-2.85,5.34-1.54,7.79,1.44,4.47,5.45,7.6,11.69,11.28,17.61,9.41,15.15,19.01,30.17,31.93,42.68,6.36,6.15,13.55,11.06,22.38,12.78,7.18,1.4,14.46,2.26,21.7,3.36Z"/>
            <path class="cls-4" d="M1713.48,1396.28c5.21-2.67,10.29-5.66,15.66-7.97,20.16-8.65,37.41-21.48,53.65-36,10.94-9.79,21.92-19.52,32-30.2,6.23-6.6,12.37-13.33,18-20.44,9.84-12.43,11.68-25.41,2.8-40.81-8.39-14.55-19.67-18.12-35.12-17.51-11.21.45-19.76,6.57-27.56,13.69-5.14,4.69-9.54,10.2-14.33,15.29-16.77,17.88-33.97,35.23-56.75,45.66-8.97,4.11-18.02,7.49-28.22,6.52-9.26-.88-14.17-4.56-16.16-13.56-1.43-6.48-2.2-13.05-2.19-19.76.16-107.37.23-214.74.29-322.11.03-56.31-.07-112.62.05-168.93.02-8.02.63-16.08,1.59-24.05,2.12-17.55,12-26.02,29.6-25.9,7.41.05,14.55,1.21,21.36,4.44,24.97,11.85,49.56,24.33,71.4,41.54,1.09.86,2.25,1.67,3.21,2.67,5.91,6.19,6.18,8.68.51,15.19-5.51,6.32-10.82,12.77-15.91,19.45-22.01,28.89-33.28,61.84-38.07,97.44-2.58,19.14-2.56,38.35-2.44,57.58.15,22.63,3.92,44.54,13.23,65.25,8.93,19.86,20.67,37.9,35.49,54,20.3,22.05,44.61,39.06,68.93,56.14,37.82,26.55,67.58,60.07,89.05,101.26,17.33,33.25,28.21,68.37,34.08,105.14,2.43,15.2,1.86,30.71.8,46.08-.46,6.71-3.61,12.55-7.27,18.28-19.24,30.17-47.04,40.81-81.71,37.28-10.36-1.06-19.59-4.36-28.76-8.94-23.11-11.54-46.48-22.56-71.61-29.17-15.23-4-30.81-5.76-46.47-6.97-3.72-.29-7.78.93-11.05-1.98-1.69-9.82-7.22-18.55-8.09-28.6Z"/>
            <path class="cls-4" d="M1337.46,1418.38c-18.78,1.86-37.04,6.16-55.26,10.97-24.17,6.38-46.16,17.77-68.47,28.48-11.73,5.62-23.92,10.21-36.95,10.64-32.88,1.09-65-12.54-77.17-47.18-4.73-13.45-4.77-27.65-3.12-41.48,3.09-25.95,8.39-51.49,17.16-76.28,18.09-51.1,48.16-93.44,90.56-127.25,18.85-15.03,39.35-27.73,58.13-42.88,36.2-29.19,62.16-64.94,72.77-110.71,2.43-10.48,3.78-21.36,4.29-32.11,1.07-23.06,1.84-46.19.13-69.23-3.13-42.18-16.2-80.51-45.71-112.03-1.43-1.53-2.83-3.1-4.19-4.69-3.43-3.99-2.8-7.61,1.06-10.89,1.33-1.13,2.68-2.26,4.11-3.25,18.72-12.97,38.44-24.18,59.21-33.52,7.71-3.47,16.09-4.96,24.25-6.1,12.97-1.82,28.89,11.82,30.33,25.26.97,9.01,1.73,18.05,1.73,27.18-.1,151.47-.02,302.93-.1,454.4,0,15.38,1.23,30.76.09,46.15-1.24,16.72-6.59,20.64-23.08,17.51-8.4-1.59-15.96-4.84-23.07-9.36-22.26-14.13-41.94-31.29-59.81-50.63-5.45-5.89-11.21-11.54-17.19-16.9-16.33-14.63-42.82-14.53-59.18,5.73-10.8,13.37-9.94,28.88-3.1,39.54,1.88,2.93,3.82,5.92,6.22,8.4,27.29,28.12,55.12,55.62,88.63,76.56,6.71,4.19,12.47,9.83,19.8,13.1.18,10.25-2.85,20.28-2.07,30.57Z"/>
            <path class="cls-4" d="M2343.66,1351.97c-12.89.84-19.5-7.93-26.73-15.29-1.94-1.97-1.13-5.4-.5-8.13,5.67-24.59,7.26-49.72,9.97-74.7.08-.7.16-1.39.17-2.09.1-10.33,4.87-15.5,15.05-19.46,21.76-8.46,42.81-18.87,63.77-29.25,14.25-7.06,23.37-18.35,24.69-35.13,1.52-19.34-11.03-37.91-29.02-45.26-13.61-5.56-25.39-1.52-37.33,3.48-9.96,4.17-19.51,9.34-29.3,13.94-8.5,3.99-11.19,2.83-11.66-7.31-.69-14.83-4.39-28.94-7.96-43.15-1.8-7.15-1.42-8.6,5.3-11.26,11.68-4.63,23.35-9.55,35.45-12.81,13.46-3.62,26.88-7.49,40.62-10.24,21-4.21,42.18-6.63,63.47-6.82,54.21-.49,108.43-.22,162.65-.18,9.56,0,10.08.43,8.44,10.41-3.11,19.01-8.6,37.45-15.08,55.53-13.99,39.04-33.05,75.48-57.85,108.8-28.56,38.36-63.45,69.73-105,93.46-28.77,16.43-60.03,26.15-92.44,32.31-5.81,1.1-11.38,3.65-16.71,3.16Z"/>
            <path class="cls-4" d="M928.29,1366.44c-6.96-6.19-7.69-15.04-9.49-23.26-5.31-24.19-8.02-48.84-12.18-73.25-5.71-33.51-6.55-67.31-1.92-101.22,1.94-14.23,4.33-28.32,8.19-42.07,13.86-49.29,40.33-90.2,81.9-120.72,13.31-9.77,26.26-19.74,33.4-35.28,1.17-2.54,2.58-4.98,3.52-7.59,11.41-31.67,32.22-55.89,59.09-75.53,25.42-18.59,52.96-32.5,83.94-38.86,42.1-8.65,71.28,14.8,82.32,49.93,4.66,14.83,6.79,29.89,6.42,45.41-.47,19.88.6,39.73-2.58,59.58-4.53,28.33-20.35,49.3-41.44,67.02-14.43,12.12-29.74,23.16-45.56,33.45-5.86,3.81-11.94,7.21-18.91,8.59-.48-10.07-.02-20.57-4.12-29.81-11.6-26.15-43.61-35.63-67.01-21.88-6.94,4.08-13.25,9.01-18.97,14.7-45.38,45.06-80.69,96.9-104.61,156.27-13.86,34.39-22.11,70.29-28.22,106.83-1.54,9.23-.46,18.76-3.76,27.69Z"/>
            <path class="cls-4" d="M928.29,1366.44c3.3-8.93,2.22-18.46,3.76-27.69,6.1-36.53,14.36-72.44,28.22-106.83,23.92-59.36,59.24-111.21,104.61-156.27,5.72-5.68,12.03-10.62,18.97-14.7,23.4-13.76,55.41-4.28,67.01,21.88,4.1,9.24,3.65,19.74,4.12,29.81-11.39,14.19-25.43,25.85-37.67,39.25-36.82,40.29-63.8,86.19-80.26,138.25-11.43,36.14-18.45,73.09-17.36,111.07,1.69,59.09,29.77,101.75,82.42,128.36,3.73,1.89,7.57,3.57,11.34,5.38,9.08,4.37,9.23,5.16,3.42,13.76-3.85,5.69-8.28,10.96-12.35,16.48-8.77,11.89-15.46,24.9-22.52,37.72-3.02,5.48-6.35,10.67-10.31,15.48-1.44,1.75-2.94,3.12-5.1.98-7.76-5.73-15.56-11.43-23.29-17.22-33.01-24.74-62.03-53.24-82.76-89.31-16.32-28.4-26.9-58.79-31.01-91.42-.68-5.44-.3-11.18-2.84-16.34l1.61-38.65Z"/>
            <path class="cls-4" d="M1046.7,1750c0,11.54.05,23.07-.02,34.61-.06,9.65-3.79,16.13-13.69,19.73-38.61,14.05-70.71,37.97-97.59,68.55-22.06,25.1-38.86,53.66-49.77,85.47-1.24,3.63-2.58,7.26-4.31,10.67-3.21,6.32-5.29,6.92-11.62,3.65-1.82-.94-3.49-2.31-5-3.73-41.59-39.28-67.73-86.81-74.6-143.88-4.24-35.23-3.19-70.45,6.5-104.96,2.74-9.76,6.14-19.3,11.67-27.9,5.93-9.21,9.43-10.8,20.16-7.99,7.77,2.03,15.53,3.97,23.39,5.66,23.57,5.07,47.42,7.85,71.37,10.36,34.85,3.65,69.75,3.64,104.69,3.41,2.1-.01,4.2-.02,6.29.03,11.19.27,12.94,1.87,13.08,12.77.15,11.19.03,22.37.03,33.56-.2,0-.4,0-.6,0Z"/>
            <path class="cls-4" d="M1243.05,1963.53c-.1,26.19-.17,52.39-.32,78.58-.05,8.75-.13,8.93-9.26,9.69-42.82,3.57-85.06,1.18-126.03-13.07-19.29-6.71-36.68-16.95-53.07-28.99-2.25-1.65-4.63-3.14-6.79-4.9-6.97-5.69-7.64-7.3-13.95,3.19-8.99,14.95-17.88,29.9-28.37,43.93-12.64,16.89-29.76,24.16-49.97,26.1-3.28.31-6.15-.68-9.1-1.62-2.61-17.89.21-35.58,2.78-53.14,4.06-27.8,12.71-54.16,27.02-78.57,17.78-30.34,43.87-51.1,75.09-66,8-3.82,10.67-2.75,14.73,5.75,7.42,15.54,16.46,29.91,28.53,42.27,19.47,19.94,42.39,33.3,69.97,39.26,24.85,5.37,49.17,4.18,73.58-1.66,1.69-.4,3.43-.54,5.15-.81Z"/>
            <path class="cls-4" d="M926.68,1405.09c2.54,5.16,2.15,10.9,2.84,16.34,4.11,32.63,14.69,63.02,31.01,91.42,20.73,36.07,49.74,64.57,82.76,89.31,7.73,5.79,15.53,11.49,23.29,17.22-18.11,3.6-36.52,4.62-54.86,6.15-17.77,1.48-35.65,1.72-53.36.02-15.61-1.5-31.32-.96-46.89-3.56-27.53-4.6-55.09-8.93-81.04-19.8-9.7-4.06-18.72-9.32-25.81-17.41-13.11-14.95-12.75-40.29-4.42-55.08,8.23-14.62,20.16-25.72,31.58-37.45,10.55-10.84,23.3-18.78,35.67-27.22,10.06-6.87,20.34-13.41,29.95-20.97,13.27-10.44,20.73-25.08,29.28-38.97Z"/>
            <path class="cls-4" d="M1903.27,1108.73c-34.99-15.14-63.34-38.62-86.28-68.85-6.02-7.93-9.6-17.16-11.7-26.73-5.35-24.45-5.37-49.07-1.91-73.85,1.94-13.87,3.84-27.57,8.94-40.78,7.89-20.44,20.77-36.17,40.44-46.15,3.16-1.6,6.41-2.54,9.94-3.05,19.93-2.86,38.77.78,57.45,7.89,38.98,14.84,70.77,39.06,96.15,71.86,7.73,9.99,13.44,21.33,17.57,33.26,5.61,16.2,13.49,30.64,27.56,41.11,5.59,4.16,11.61,7.65,17.03,12.14,15.95,13.2,30.67,27.4,42.26,44.73,19.37,28.98,30.55,61.04,36.78,95.1,4.63,25.27,5.33,50.79,3.84,76.26-1.13,19.44-3.76,38.77-8.26,57.9-2.27,9.62-1.66,20.06-4.31,29.77-3.44,12.6-4.37,26.13-12.86,36.99-1.68-3.14-2.01-6.63-2.61-10.07-2.4-13.75-4.23-27.63-7.46-41.18-11.05-46.43-27.6-90.69-52.6-131.63-23.1-37.82-50.88-71.74-83.26-101.89-11.3-10.52-24.33-16.92-40.66-15.99-19.08,1.08-38.03,15.29-43.69,33.51-2.03,6.54-.82,13.21-2.38,19.66Z"/>
            <path class="cls-4" d="M2135.57,1402.11c3.11,26.99-4.7,52.28-13.52,76.94-20.11,56.28-58.17,98.14-107.82,130.37-4.38,2.84-10.53,3.9-13,9.53-11.2,2.51-11.8,2.17-16.49-6.98-10.65-20.82-21.73-41.37-36.48-59.71-6.5-8.08-5.7-11.3,4.18-15.49,18.17-7.71,34.81-17.55,49.01-31.48,30-29.41,45.09-65.01,44.71-106.96-.24-25.89-3.65-51.61-9.76-76.68-14.6-59.9-41.29-113.73-82.21-160.42-12.33-14.06-26.16-26.08-40.49-37.77-4.82-3.93-9.87-7.76-10.41-14.74,1.56-6.44.35-13.12,2.38-19.66,5.67-18.22,24.61-32.42,43.7-33.5,16.32-.93,29.35,5.47,40.65,15.99,32.38,30.15,60.16,64.07,83.26,101.89,25,40.95,41.55,85.21,52.61,131.63,3.22,13.55,5.06,27.44,7.46,41.18.6,3.44.93,6.93,2.61,10.07-.25,14.33-.6,28.65.51,42.95-.31.93-1,1.93-.89,2.84Z"/>
            <path class="cls-4" d="M2279.34,1781.72c-.36,42.62-9.07,78.14-24.99,112.17-12.95,27.69-31.88,50.54-53.84,71.37-9.75,9.24-15.85,12.19-22.37-4.91-7.49-19.63-16.24-38.64-27.71-56.23-13.41-20.56-30-38.4-48.18-54.89-21.02-19.05-45.35-32.32-71.35-43-9.64-3.96-14.64-10.85-14.73-21.78-.18-21.99-2.76-43.92-2.35-65.95.05-2.79.02-5.59.1-8.38.12-4.2,2.18-6.43,6.53-6.38,8.39.09,16.81-.41,25.15.25,30.33,2.4,60.6,2.23,90.95,0,27.87-2.04,55.3-6.84,82.81-11.23,7.21-1.15,14.26-3.32,21.45-4.67,10.06-1.89,15.91.34,19.72,9.23,8.12,18.94,15.04,38.32,16.78,59.14.85,10.09,2.39,20.12,2.03,25.26Z"/>
            <path class="cls-4" d="M2114.79,2084.26c-7.24-1.1-14.52-1.96-21.7-3.36-8.83-1.72-16.03-6.63-22.38-12.78-12.93-12.51-22.52-27.53-31.93-42.68-3.68-5.92-6.81-12.16-11.28-17.61-2.44-2.98-4.81-4.29-7.79-1.44-4.28,4.09-9.59,6.75-13.81,11.05-9.12,9.31-20.47,15.5-31.97,21.5-14.88,7.76-30.36,13.78-46.51,18.18-18.98,5.17-38.46,7.1-57.99,8.1-14.3.74-28.67.47-43,.37-8.93-.06-10.5-1.2-9.81-9.48,1.88-22.34,1.28-44.71,1.55-67.07.04-3.27.52-6.22,3.44-8.22,12.59-.18,24.76,4.38,37.44,3.3,4.16-.35,8.35-.4,12.52-.59,1.1,1.14,1.97,1.17,2.48-.53,29.59-5.37,56.93-15.52,79.46-36.44,16.85-15.65,30.14-33.73,39.66-54.7,6.19-13.64,7.95-13.91,20.97-7.11,26.69,13.93,50.02,31.77,67.58,56.58,12.23,17.27,20.16,36.44,26.12,56.65,7.28,24.67,9.78,49.86,9.65,75.43-.02,3.78.45,7.79-2.7,10.84Z"/>
            <path class="cls-4" d="M2001.23,1618.95c2.47-5.63,8.63-6.69,13-9.53,49.65-32.23,87.7-74.09,107.82-130.37,8.81-24.66,16.62-49.96,13.52-76.94-.1-.91.58-1.9.89-2.85,5.29,18.71,17.25,33.17,31.21,45.65,10.88,9.72,23.27,17.83,35.43,26,20.75,13.94,39.13,30.36,54.41,50.14,8.05,10.42,13.74,22.55,14.68,35.4.98,13.47-4.14,26.1-14.5,35.68-8.58,7.94-18.75,12.96-29.74,17.04-19.84,7.37-40.4,10.25-61.24,12.79-33.71,4.11-67.45,5.77-101.34,4.48-18.11-.69-36.2-1.81-53.92-5.99-3.39-.8-7.01.27-10.22-1.51Z"/>
            <path class="cls-4" d="M1874.05,1983.02c-.5,1.7-1.38,1.67-2.48.53-.86-1.18.01-1.72.9-1.92.92-.21,1.9-.04,1.58,1.38Z"/>
          </g>
        </g>
      </g>
    </g>
  </g>
</svg>