<?xml version="1.0" encoding="UTF-8"?>
<svg id="Layer_2" data-name="Layer 2" xmlns="http://www.w3.org/2000/svg" viewBox="0 0 7551.2 1943.97">
  <defs>
    <style>
      .cls-1 {
        fill: #546222;
      }

      .cls-1, .cls-2, .cls-3, .cls-4 {
        stroke-width: 0px;
      }

      .cls-2 {
        fill: #eee7db;
      }

      .cls-3, .cls-5 {
        fill: #2d271a;
      }

      .cls-4 {
        fill: #8eac2a;
      }

      .cls-5 {
        font-family: Modulus-Bold, Modulus;
        font-size: 683.57px;
        font-weight: 700;
      }
    </style>
  </defs>
  <g id="FUNDO_CLARO" data-name="FUNDO CLARO">
    <g id="Logo_com_texto_Horizontal_mkt" data-name="Logo com texto Horizontal mkt">
      <g>
        <g>
          <path class="cls-3" d="M1080.99,1856.85c-33.96,1.12-70.19-5.44-105.12-18.47-37.06-13.82-69.41-34.96-95.52-65.09-6.42-7.41-8.27-7.33-14.92-.25-30.24,32.21-66.58,55.09-108.4,68.82-36.97,12.14-75.16,17.55-114.1,15.77-40.79-1.87-80.51-9.65-119.01-23.48-41.03-14.74-78.79-35.71-113.86-61.27-26.97-19.66-55.59-36.53-84.17-53.55-32.32-19.25-60.38-43.47-85.77-71.16-25.75-28.08-45.07-60.04-60.38-94.66-11.11-25.11-17.64-51.54-21.84-78.55-1.79-11.52-7.03-19.76-16.42-27.11-25.81-20.2-48.11-44.07-67.64-70.41-19.11-25.77-34.95-53.49-46.51-83.42-9.7-25.12-16.61-51-20.9-77.74-4.51-28.07-7.33-56.07-6.17-84.49.87-21.34,4.13-42.35,7.84-63.33,2.89-16.37,6.53-32.51,12.38-48.15,1.98-5.31,1.11-11.07-.89-16.64-8.84-24.6-13.6-50.03-13.89-76.15-.38-34.55,8.04-67.17,22.65-98.35,19.75-42.17,46.56-79.06,81.55-109.91,2.49-2.2,4.83-4.58,7.15-6.97,2.25-2.32,2.92-5.08,2.23-8.29-2.53-11.69-4.35-23.5-6.02-35.35-4.18-29.77-5.37-59.68-4.97-89.7.31-23.02,2.11-45.99,6.37-68.55,4.5-23.82,10.83-47.25,19.31-70.08,13.81-37.18,33.26-71.1,58.08-101.89,10.02-12.43,20.41-24.83,32.79-34.96,16.31-13.35,28.22-29.68,38.41-47.92,14.54-26.03,33.32-49.07,55-69.45,24.11-22.67,51.16-41.39,80.66-56.55,27.93-14.35,57.39-24.5,87.65-32.51,3.52-.93,7.13-1.76,10.74-2.08,15.15-1.33,24.79-12.1,35.53-20.78,24.24-19.58,50.75-35.28,79.18-47.95,28.44-12.68,58.03-21.95,88.91-24.88,39.92-3.78,79.28-.36,115.6,19.02,17.38,9.27,33.5,20.46,47.25,34.75,6.72,6.98,6.88,7.26,14.09.02,11.83-11.88,24.83-22.15,39.41-30.42,19.58-11.1,40.55-17.84,62.79-21.42,27.76-4.47,55.29-2.36,82.4,3.26,22.73,4.71,44.97,11.6,66.43,20.99,26.99,11.82,51.59,27.54,75.77,44.05,3.83,2.61,7.51,5.63,10.68,9,8.93,9.52,20.48,12.99,32.76,15.14,22.03,3.85,43.11,10.98,63.75,19.39,34.77,14.16,66.72,33.09,95.57,57.2,23.69,19.8,43.61,42.81,60.71,68.51,6.66,10.01,12.54,20.38,18.31,30.84,5.56,10.09,12.84,18.72,21.35,26.16,28.36,24.79,51.53,53.75,70.68,86.07,4.17,7.03,5.18,7.59,12.87,4.06,22.21-10.19,45.72-16.46,69.31-21.89,26.22-6.03,52.85-10.32,79.94-10.91,56.33-1.22,112.66-.4,168.98-.56,31.66-.09,63.33.1,94.99.3,10.21.07,10.51.37,10.62,10.88.33,30.03-2.2,59.77-6.92,89.51-4.29,27.02-11.3,53.25-18.99,79.34-3.85,13.05-8.84,25.89-14.59,38.22-16.78,35.98-36.38,70.37-61.57,101.25-21.98,26.94-46.94,50.74-75.26,71.09-16.53,11.88-33.79,22.4-51.85,31.67-20.75,10.64-42.37,19.17-64.79,25.56-4.46,1.27-8.62,3.44-13.37,3.95-4.67.5-5.07,3.51-3.19,7.24,3.29,6.54,6.5,13.12,9.87,19.62,11.87,22.94,19.07,47.03,22.47,72.86,3.94,29.89-1.12,58.22-9.01,86.51-6.36,22.81-6.95,22.88.1,44.4,3.86,11.79,5.73,23.9,7.88,35.97,4.79,26.91,7.34,54.05,6.84,81.45-.35,19.02-2.94,37.73-5.42,56.56-3.25,24.6-9.86,48.21-17.5,71.6-3.49,10.7-7.71,21.28-12.75,31.33-10.41,20.8-20.89,41.57-34.87,60.38-19.57,26.33-41.93,49.96-66.76,71.32-.25.22-.49.46-.77.64-12.84,8.22-17.27,20.68-19.61,35.17-4.25,26.3-11.91,51.77-22.73,76.19-12.2,27.53-27.53,53.19-46.8,76.36-23.12,27.79-49.33,52.2-79.55,72.26-19.7,13.08-40.24,24.73-60.68,36.56-14.43,8.35-27.77,18.36-41.37,27.95-28.35,19.99-58.09,37.37-89.84,51.46-28.73,12.76-58.45,21.61-89.31,27.67-23.34,4.59-46.67,7.01-73.82,6.97ZM992.53,1574.24c-8.05-5.74-16.11-11.46-24.15-17.22-16.02-11.48-30.46-24.82-44.81-38.27-1.39-1.3-2.71-3.34-4.95-2.68-2.53.74-1.87,3.21-1.87,5.07.1,41.95-4.31,83.85-.24,125.85,2.67,27.57,13.37,51.22,31.86,71.5,12.44,13.64,26.65,24.92,43.38,33.13,17.45,8.56,35.66,14.28,54.7,17.95,18.87,3.65,37.86,2.41,56.8,2.08,9.24-.16,18.62-1.51,27.65-3.59,22-5.07,43.79-10.62,64.94-19.12,30.52-12.26,58.41-28.72,84.98-47.73,16.51-11.81,32.7-24,50.37-34.15,18.73-10.75,37.44-21.5,55.26-33.9,40.56-28.21,72.47-63.53,92.7-108.8,6.08-13.6,11.69-27.51,14.6-42.25,3.94-19.92,7.34-39.95,8.63-60.23.54-8.4,3.79-14.47,11.01-18.84,14-8.47,26.76-18.66,38.97-29.5,15.47-13.74,30.13-28.38,42.45-44.98,23.22-31.3,39.21-66.22,50.1-103.6,3.38-11.59,4.34-23.52,6.59-35.26,2.95-15.41,5.07-30.95,4.64-46.6-.57-20.65-3.41-41.12-7.27-61.4-1.05-5.53-1.45-11.14-3.28-16.61-5.48-16.36-9.74-33.15-18.62-48.19-2.11-3.57-3-7.11-.81-11.28,6.67-12.68,10.52-26.53,15.99-39.71,4.79-11.55,7.14-23.49,7.78-35.84,1.28-24.93-7.28-47.4-19.78-68.02-24.35-40.16-58.83-70.17-98.97-93.93-8.27-4.9-9.59-6.81-8.07-15.77,4.1-24.24,8.77-48.39,12.29-72.71,2.62-18.1,6.78-35.88,8.42-54.22,3.86-43.38-.91-85.79-11.93-127.56-8.19-31.04-21.37-60.16-39.79-86.52-14.51-20.77-30.58-40.36-51.26-55.58-11.39-8.39-20.59-18.24-26.53-31.67-9.88-22.32-23.88-42.25-39.96-60.63-24.05-27.49-52.97-48.27-86.41-62.98-26.36-11.6-53.51-20.64-82.38-21.9-12.38-.54-21.26-4.77-29.74-13.28-30.71-30.85-66.87-53.4-107.93-67.73-24-8.38-48.37-13.06-74.23-7.73-32.45,6.68-64.44,34.59-73.79,73.24-3.72,15.38-3.61,31.05-3.63,46.65-.18,154.97-.23,309.94-.1,464.91.01,13.25.51,26.61,4.72,39.46,16.02,48.85,63.54,71.44,109.17,60.5,4.5-1.08,9.18-1.44,13.78-2.13.84,9.57,6.1,17.89,7.71,27.25-4.47,1.33-9.02,2.23-13.61,3.11-22.34,4.28-42.2,13.76-58.99,29.29-22.77,21.06-37.57,47.23-47.71,76.11-11.34,32.3-16.24,65.82-16.21,99.97.08,93.27.33,186.54.76,279.82.12,25.65,2.38,51.01,9.69,75.92,7.49,25.55,18.81,49.11,34.44,70.37,18.49,25.16,41.05,46.2,68.34,61.87,27.33,15.69,56.28,27.08,87.51,31.66,28.12,4.12,56.43,3.86,84.69,1.13q7.97,2.46,8.49,10.5c1.19,18.97-.16,37.99,1.48,56.95,1.07,12.38-.7,14.3-13.29,15.37-1.66.14-3.33.09-5,.1-13,.1-26,.05-38.99.33-31.86.69-63.1-3.6-93.8-11.85-23.2-6.23-45.29-15.41-66.78-26.08ZM527.42,1523.31c5.32.15,10.64.1,15.94.48,42.8,3.04,84.27-3.06,124.29-18.42,56.63-21.73,101.51-57.6,131.42-110.99,12.25-21.87,20.68-45.14,25.39-69.87,3.58-18.8,4.2-37.71,4.24-56.68.16-82.98.19-165.97.2-248.95,0-26.33-1.6-52.42-7.41-78.33-6.69-29.81-16.36-58.32-33.13-83.89-15.83-24.13-35.77-43.9-64.5-52.41-12.71-3.76-25.53-7.19-38.3-10.77-.75-9.8,2.14-19.36,1.97-29.13,20.31,6.48,40.74,11.63,62.46,9.75,24.66-2.13,44.5-12.65,59.4-32.33,13.77-18.19,19.56-39.05,19.62-61.6.13-55.32.19-110.64.16-165.96-.04-104.98-.05-209.95-.33-314.93-.07-27.12-5.73-52.85-22.83-74.9-13.43-17.32-30.46-29.53-51.81-35.06-21.87-5.66-43.74-3.64-65.07,2.41-30.27,8.59-57.92,22.92-83.89,40.66-16.58,11.33-31.07,25.06-45.96,38.36-4.14,3.7-8.5,6.08-14.2,6.36-20.05,1-39.49,5.11-58.46,11.71-40.75,14.17-77.58,34.81-108.36,65.4-20.75,20.62-36.79,44.63-49.53,70.86-4.15,8.54-9.44,15.98-17.17,21.66-31.91,23.47-56.74,53.17-75.93,87.61-25.57,45.89-37.84,95.42-39.74,147.77-1.46,40.22,5.27,79.51,12.28,118.83,3.43,19.28,6.67,38.6,8.84,58.08.51,4.63-.63,7.89-4.91,9.67-8.07,3.36-15.01,8.6-22.08,13.51-36.92,25.63-68.33,56.13-86.29,98.46-9.82,23.15-12.32,46.83-6.06,71.24,4.47,17.43,11.72,33.86,19.65,49.92,3.01,6.09,3.7,11.16-.57,16.57-2.71,3.44-4.21,7.51-5.94,11.47-12.02,27.44-17.11,56.55-20.03,86.06-2.59,26.26-1.19,52.39,2.1,78.69,5.26,42.1,19.59,80.64,41.84,116.25,23.66,37.87,55.81,67.59,93.01,91.91,7.85,5.13,12.78,11.26,12.87,20.97.16,17.01,3.58,33.57,6.65,50.25,8.56,46.5,29.42,86.49,61.41,120.99,23.11,24.92,50.38,44.37,79.86,60.87,23.27,13.02,45.72,27.32,67.06,43.26,49.33,36.84,103.36,62.61,164.96,70.63,34.3,4.47,68.25,3.8,101.65-6.95,28.44-9.15,53.75-23,73.81-45.52,17.26-19.38,28.1-41.75,31.75-67.59,1.31-9.29,1.74-18.56,1.69-27.9-.19-35.99-.34-71.98-.63-107.97-.03-3.39.59-7.16-1.81-10.1-4.31.58-6.15,3.64-8.53,5.8-11.1,10.09-22.64,19.63-34.66,28.6-10.63,7.94-22.13,14.67-32.19,23.37-2.08.09-3.77,1.14-5.52,2.11-40.51,22.36-84.15,34.22-129.97,39.09-26.25,2.79-52.54,1.76-78.81,1.87-10.73.05-11.38-.79-11.21-11.44.36-23.28.88-46.55,1.34-69.83ZM1644.19,730.21c5.09.47,10.39-1.96,15.92-3.01,30.88-5.87,60.66-15.13,88.07-30.79,39.58-22.61,72.82-52.5,100.03-89.04,23.63-31.74,41.78-66.45,55.11-103.65,6.17-17.23,11.4-34.79,14.37-52.9,1.56-9.51,1.06-9.91-8.04-9.92-51.65-.04-103.31-.3-154.96.17-20.29.18-40.46,2.49-60.47,6.5-13.09,2.62-25.87,6.3-38.7,9.75-11.52,3.1-22.64,7.79-33.77,12.2-6.4,2.54-6.76,3.92-5.05,10.73,3.4,13.54,6.93,26.98,7.58,41.11.45,9.65,3.02,10.76,11.11,6.96,9.33-4.38,18.42-9.3,27.91-13.28,11.38-4.77,22.6-8.61,35.57-3.31,17.14,7,29.1,24.7,27.65,43.12-1.26,15.98-9.95,26.74-23.53,33.47-19.97,9.89-40.02,19.8-60.76,27.86-9.7,3.77-14.25,8.7-14.34,18.54,0,.66-.09,1.33-.16,1.99-2.58,23.8-4.09,47.74-9.5,71.17-.6,2.6-1.37,5.87.48,7.75,6.89,7.01,13.18,15.37,25.47,14.57Z"/>
          <g>
            <path class="cls-2" d="M685.57,793.49c12.77,3.58,25.58,7.01,38.3,10.77,28.74,8.51,48.68,28.28,64.5,52.41,16.77,25.56,26.44,54.07,33.13,83.89,5.81,25.9,7.41,52,7.41,78.33,0,82.98-.03,165.97-.2,248.95-.04,18.97-.66,37.88-4.24,56.68-4.71,24.74-13.15,48.01-25.39,69.87-29.9,53.39-74.78,89.26-131.42,110.99-40.02,15.36-81.49,21.46-124.29,18.42-5.3-.38-10.63-.33-15.94-.48-14.41-3.9-29.21-5.79-43.91-8.08-14.83-2.3-29.41-5.35-43.47-10.6-10.1-3.77-18.89-10.25-21.86-20.55-8.06-27.89,9.54-50.44,39.25-47.95,14.65,1.23,28.31,6.6,42.88,8.42,28.7,3.6,57.24,8.38,86.26,4.78,13.82-1.71,27.79-3.07,41.12-7.34,28.2-9.03,53.36-23.12,75.88-42.79,21.88-19.11,35.11-43.15,45.13-69.47,5.01-13.15,6.35-27.1,6.33-41.23-.1-95.95-.05-191.9,0-287.86,0-10.35-.76-20.62-2.16-30.86-3.6-26.32-10.25-51.69-25.65-73.79-13.83-19.85-33.15-28-57.19-24.3-14.85,2.29-28.9,6.79-42.72,12.99-26.44,11.84-49.9,27.74-71.08,47.3-16.29,15.04-29.52,32.63-40.83,51.45-12.71,21.15-22.38,43.69-27.57,68.15-5.22,24.6-5.11,49.56-7.04,74.38-1.11,14.32,1.1,28.59,1.97,42.85,1.17,19.14,6.12,37.46,17.57,53.28,7.39,10.21,17.25,17.71,29.49,21.13,21.67,6.04,42.18,2.38,61.43-8.92,9.51-5.58,18.26-12.24,26.21-19.86,4.19-4.01,8.93-7.08,14.2-9.1,9.86-3.79,20.11-6.13,29.78.09,11.7,7.52,19.67,17.17,19.55,32.5-.1,12.99-5.92,22.14-15.18,30.01-21.36,18.16-43.81,34.63-70.21,44.9-1.64.25-3.3.38-4.91.77-23.25,5.57-46.42,6.7-70.1,1.59-26.27-5.68-48.11-18.4-66.66-37.4-11.5-11.78-20.11-25.47-27.18-40.27-3.87-8.11-6.42-9.12-14.04-5.48-29.75,14.19-54.6,33.97-71.54,62.88-13.63,23.26-21.88,48.37-25.75,74.86-2.45,16.74-5.14,33.59-2.65,50.64,1.51,12.8,2.4,25.62,5.06,38.35,7.65,36.64,24.88,67.58,51.48,93.86,16.52,16.32,35.28,29.26,55.35,40.46,23.24,12.97,45.88,26.81,67.39,42.52,14.47,10.58,29.12,20.93,44.94,29.5,30.97,16.77,63.4,28.88,98.68,32.88,25.47,2.89,50.55,2.25,74.58-7.3,24.23-9.63,42.18-25.25,45.61-53.04.37-2.96.72-5.95.73-8.92.01-12.32.7-24.71-.45-36.93-.95-10.12.29-20.73-4.57-30.31,10.07-8.7,21.57-15.44,32.2-23.38,12.02-8.98,23.56-18.51,34.66-28.6,2.37-2.16,4.21-5.22,8.53-5.8,2.4,2.95,1.79,6.72,1.81,10.1.29,35.99.44,71.98.63,107.97.05,9.34-.38,18.61-1.69,27.9-3.64,25.84-14.49,48.21-31.75,67.59-20.06,22.53-45.37,36.37-73.81,45.52-33.4,10.75-67.35,11.41-101.65,6.95-61.6-8.02-115.62-33.79-164.96-70.63-21.34-15.94-43.79-30.24-67.06-43.26-29.48-16.5-56.75-35.95-79.86-60.87-31.99-34.5-52.85-74.49-61.41-120.99-3.07-16.68-6.49-33.24-6.65-50.25-.09-9.72-5.03-15.84-12.87-20.97-37.19-24.33-69.35-54.05-93.01-91.91-22.25-35.61-36.58-74.15-41.84-116.25-3.28-26.3-4.69-52.42-2.1-78.69,2.91-29.51,8.01-58.62,20.03-86.06,1.73-3.96,3.23-8.03,5.94-11.47,4.27-5.41,3.58-10.48.57-16.57-7.93-16.06-15.18-32.48-19.65-49.92-6.26-24.41-3.76-48.09,6.06-71.24,17.97-42.33,49.37-72.83,86.29-98.46,7.07-4.91,14.01-10.15,22.08-13.51,4.28-1.78,5.43-5.05,4.91-9.67-2.17-19.48-5.41-38.8-8.84-58.08-7-39.32-13.73-78.62-12.28-118.83,1.9-52.35,14.17-101.88,39.74-147.77,19.19-34.44,44.02-64.14,75.93-87.61,7.73-5.69,13.02-13.12,17.17-21.66,12.74-26.23,28.77-50.24,49.53-70.86,30.79-30.58,67.62-51.23,108.36-65.4,18.97-6.6,38.41-10.71,58.46-11.71,5.7-.28,10.06-2.66,14.2-6.36,14.88-13.3,29.38-27.03,45.96-38.36,25.97-17.75,53.62-32.07,83.89-40.66,21.32-6.05,43.2-8.07,65.07-2.41,21.36,5.53,38.38,17.74,51.81,35.06,17.1,22.05,22.76,47.78,22.83,74.9.28,104.98.29,209.95.33,314.93.02,55.32-.04,110.64-.16,165.96-.05,22.56-5.84,43.41-19.62,61.6-14.9,19.68-34.74,30.2-59.4,32.33-21.71,1.88-42.14-3.27-62.46-9.75-6.98-3.11-12.48-8.49-18.87-12.48-31.93-19.95-58.44-46.15-84.44-72.94-2.29-2.36-4.14-5.21-5.93-8-6.52-10.15-7.33-24.93,2.96-37.67,15.59-19.3,40.82-19.39,56.38-5.46,5.7,5.1,11.18,10.49,16.38,16.1,17.03,18.42,35.78,34.77,56.99,48.23,6.78,4.3,13.99,7.39,21.98,8.91,15.72,2.98,20.81-.75,21.99-16.68,1.09-14.66-.1-29.31-.09-43.96.07-144.31,0-288.61.09-432.92,0-8.7-.72-17.31-1.65-25.9-1.38-12.81-16.54-25.8-28.9-24.07-7.78,1.09-15.76,2.51-23.11,5.81-19.79,8.9-38.58,19.58-56.41,31.94-1.37.95-2.65,2.02-3.92,3.1-3.67,3.12-4.28,6.58-1.01,10.37,1.3,1.51,2.63,3.01,4,4.47,28.11,30.03,40.57,66.55,43.54,106.74,1.63,21.95.9,43.99-.13,65.95-.48,10.25-1.77,20.61-4.08,30.59-10.11,43.61-34.84,77.66-69.33,105.47-17.89,14.43-37.42,26.53-55.39,40.85-40.4,32.21-69.05,72.55-86.28,121.23-8.36,23.61-13.4,47.94-16.35,72.67-1.57,13.18-1.53,26.7,2.98,39.52,11.59,33.01,42.2,45.98,73.52,44.95,12.41-.41,24.03-4.78,35.2-10.14,21.26-10.2,42.21-21.06,65.24-27.13,17.36-4.58,34.76-8.68,52.65-10.45ZM427.49,984.97c2.07,2.05,3.5.74,4.87-.92,3.78-4.58,6.95-9.53,9.83-14.75,6.73-12.22,13.1-24.61,21.46-35.93,3.88-5.25,8.11-10.27,11.77-15.7,5.53-8.19,5.39-8.95-3.26-13.11-3.59-1.73-7.25-3.33-10.81-5.13-50.16-25.36-76.91-66-78.52-122.29-1.04-36.19,5.65-71.39,16.54-105.82,15.68-49.59,41.38-93.33,76.46-131.71,11.67-12.77,25.04-23.87,35.9-37.4,6.65-1.32,12.44-4.56,18.02-8.18,15.07-9.8,29.66-20.31,43.41-31.87,20.09-16.88,35.17-36.85,39.48-63.85,3.02-18.91,2.01-37.83,2.45-56.77.35-14.79-1.68-29.14-6.11-43.27-10.52-33.47-38.32-55.81-78.43-47.57-29.52,6.06-55.75,19.32-79.97,37.03-25.6,18.72-45.42,41.78-56.29,71.96-.9,2.49-2.24,4.82-3.35,7.23-6.81,14.8-19.15,24.3-31.82,33.61-39.6,29.07-64.82,68.06-78.03,115.01-3.68,13.1-5.95,26.52-7.8,40.08-4.41,32.3-3.61,64.51,1.83,96.43,3.96,23.25,6.54,46.73,11.6,69.78,1.72,7.83,2.41,16.26,9.04,22.16l-1.54,36.82c-8.15,13.23-15.25,27.17-27.9,37.12-9.15,7.2-18.94,13.43-28.53,19.97-11.79,8.04-23.93,15.6-33.98,25.93-10.88,11.17-22.25,21.75-30.09,35.68-7.93,14.09-8.28,38.23,4.21,52.48,6.76,7.71,15.36,12.72,24.59,16.59,24.72,10.36,50.98,14.49,77.21,18.87,14.83,2.48,29.8,1.97,44.67,3.39,16.87,1.62,33.91,1.39,50.84-.02,17.47-1.46,35.01-2.43,52.26-5.87ZM408.55,1108.98c.19,0,.38,0,.57,0,0-10.66.11-21.32-.03-31.98-.14-10.39-1.81-11.91-12.47-12.17-2-.05-4-.04-6-.03-33.29.22-66.54.23-99.74-3.25-22.82-2.39-45.55-5.04-68-9.87-7.48-1.61-14.88-3.46-22.28-5.39-10.23-2.68-13.56-1.17-19.21,7.61-5.27,8.19-8.51,17.28-11.12,26.58-9.22,32.88-10.23,66.43-6.19,100,6.55,54.38,31.45,99.65,71.07,137.08,1.43,1.35,3.02,2.66,4.76,3.55,6.03,3.12,8.01,2.55,11.07-3.47,1.65-3.25,2.92-6.71,4.1-10.17,10.39-30.3,26.4-57.52,47.42-81.43,25.61-29.14,56.19-51.92,92.98-65.31,9.44-3.43,12.99-9.6,13.04-18.8.07-10.99.02-21.98.02-32.97Z"/>
            <path class="cls-2" d="M1200.45,1528.91c-28.28,2.73-56.59,3-84.71-1.12-31.23-4.58-60.18-15.97-87.51-31.66-27.29-15.67-49.85-36.71-68.34-61.87-15.63-21.27-26.95-44.82-34.44-70.37-7.3-24.91-9.57-50.27-9.69-75.92-.43-93.27-.69-186.54-.76-279.82-.03-34.15,4.87-67.67,16.21-99.97,10.14-28.88,24.95-55.05,47.71-76.11,16.79-15.53,36.65-25.01,58.99-29.29,4.59-.88,9.14-1.77,13.6-3.1,3.12,2.77,6.98,1.61,10.53,1.88,14.92,1.15,29.76,2.83,44.27,6.64,23.94,6.29,46.2,16.79,68.22,27.79,8.74,4.36,17.54,7.51,27.4,8.52,33.03,3.37,59.52-6.77,77.85-35.51,3.48-5.46,6.49-11.03,6.93-17.42,1.01-14.64,1.55-29.42-.76-43.9-5.59-35.02-15.95-68.48-32.46-100.16-20.46-39.24-48.8-71.17-84.84-96.47-23.18-16.27-46.33-32.48-65.67-53.49-14.12-15.33-25.3-32.53-33.81-51.44-8.87-19.72-12.47-40.6-12.61-62.16-.12-18.33-.13-36.63,2.32-54.86,4.57-33.91,15.31-65.3,36.27-92.83,4.85-6.37,9.9-12.51,15.16-18.53,5.4-6.2,5.15-8.57-.48-14.47-.91-.95-2.01-1.73-3.06-2.55-20.81-16.39-44.24-28.29-68.03-39.58-6.49-3.08-13.29-4.18-20.35-4.23-16.77-.11-26.18,7.95-28.2,24.67-.92,7.59-1.5,15.27-1.51,22.91-.12,53.65-.02,107.29-.05,160.94-.06,102.29-.13,204.59-.28,306.88,0,6.39.72,12.65,2.08,18.82,1.9,8.57,6.57,12.08,15.39,12.92,9.72.92,18.34-2.29,26.89-6.21,21.7-9.94,38.09-26.47,54.07-43.5,4.55-4.86,8.75-10.1,13.65-14.57,7.44-6.79,15.58-12.62,26.26-13.05,14.72-.59,25.46,2.82,33.46,16.68,8.46,14.67,6.71,27.04-2.67,38.88-5.36,6.77-11.22,13.18-17.15,19.47-9.6,10.18-20.06,19.45-30.49,28.77-15.47,13.83-31.91,26.06-51.11,34.3-5.12,2.2-9.96,5.04-14.92,7.59-4.6.69-9.27,1.05-13.78,2.13-45.63,10.94-93.15-11.65-109.17-60.5-4.21-12.85-4.71-26.21-4.72-39.46-.12-154.97-.08-309.94.1-464.91.02-15.6-.09-31.27,3.63-46.65,9.35-38.65,41.34-66.56,73.79-73.24,25.87-5.33,50.23-.65,74.23,7.73,41.06,14.34,77.22,36.88,107.93,67.73,8.47,8.51,17.36,12.74,29.74,13.28,28.87,1.27,56.01,10.31,82.38,21.9,33.44,14.71,62.35,35.49,86.41,62.98,16.08,18.38,30.08,38.31,39.96,60.63,5.94,13.43,15.14,23.29,26.53,31.67,20.68,15.23,36.74,34.82,51.26,55.58,18.42,26.36,31.6,55.48,39.79,86.52,11.02,41.77,15.79,84.18,11.93,127.56-1.63,18.34-5.8,36.13-8.42,54.22-3.52,24.32-8.19,48.48-12.29,72.71-1.52,8.96-.21,10.88,8.07,15.77,40.14,23.76,74.62,53.77,98.97,93.93,12.5,20.62,21.06,43.09,19.78,68.02-.63,12.35-2.98,24.29-7.78,35.84-5.47,13.18-9.32,27.03-15.99,39.71-2.19,4.17-1.3,7.71.81,11.28,8.88,15.04,13.14,31.83,18.62,48.19,1.83,5.48,2.23,11.08,3.28,16.61,3.86,20.29,6.7,40.76,7.27,61.4.43,15.66-1.68,31.19-4.64,46.6-2.25,11.74-3.21,23.67-6.59,35.26-10.89,37.38-26.88,72.31-50.1,103.6-12.32,16.6-26.97,31.25-42.45,44.98-12.22,10.85-24.97,21.03-38.97,29.5-7.22,4.37-10.47,10.44-11.01,18.84-1.29,20.28-4.69,40.31-8.63,60.23-2.91,14.74-8.52,28.64-14.6,42.25-20.24,45.27-52.15,80.59-92.7,108.8-17.81,12.39-36.53,23.14-55.26,33.9-17.67,10.14-33.86,22.34-50.37,34.15-26.57,19.01-54.46,35.47-84.98,47.73-21.15,8.49-42.94,14.04-64.94,19.12-9.03,2.08-18.4,3.42-27.65,3.59-18.94.33-37.93,1.57-56.8-2.08-19.04-3.68-37.25-9.4-54.7-17.95-16.73-8.2-30.94-19.49-43.38-33.13-18.49-20.29-29.19-43.93-31.86-71.5-4.06-41.99.35-83.9.24-125.85,0-1.86-.66-4.33,1.87-5.07,2.24-.66,3.56,1.38,4.95,2.68,14.35,13.45,28.78,26.78,44.81,38.27,8.04,5.76,16.1,11.48,24.15,17.22-3.63,22.06-4.81,44.17-2.34,66.5,1.79,16.14,8.69,28.81,21.47,38.93,16.15,12.78,35.17,17.44,54.73,19.33,30.25,2.92,59.75-2.87,88.3-12.41,31.16-10.42,59.11-27.24,85.25-46.95,17.82-13.43,36.52-25.4,55.78-36.65,20.91-12.2,42.58-23,61.33-38.96,16.64-14.16,31.02-29.97,43.44-47.72,9.84-14.05,15.62-30.08,21.16-46.13,4.74-13.71,6.31-27.85,4.5-42.3,3-2.91,2.55-6.72,2.57-10.33.12-24.36-2.26-48.36-9.19-71.86-5.68-19.25-13.23-37.51-24.89-53.97-16.74-23.63-38.96-40.64-64.39-53.9-12.41-6.48-14.08-6.22-19.98,6.77-9.07,19.97-21.73,37.2-37.79,52.11-21.46,19.93-47.51,29.6-75.7,34.72.3-1.35-.64-1.51-1.51-1.32-.84.19-1.68.7-.84,1.82-3.98.18-7.97.23-11.94.56-12.08,1.02-23.68-3.32-35.68-3.15-7.56-2.84-15.46-4.71-22.78-8.27-15.53-7.56-31.73-13.77-45.76-24.24-11.23-8.38-16.23-20.15-15.02-33.12,2.37-25.6,33.23-41.3,54.83-27.85,17.48,10.88,35.72,20.84,57.07,22.4,11.42.84,22.95.26,33.14-4.68,18.71-9.07,31.83-24.28,39.1-43.56,7.41-19.64,11.71-40.1,11.84-61.38.14-23.68-1.62-47.14-4.23-70.67-3.97-35.82-15.92-68.72-35.36-98.68-16.77-25.85-37.93-47.82-63.1-66-23.46-16.95-48.5-30.55-76.8-36.73-17.88-3.91-35.82-3.02-51.25,9.37-8.18,6.57-14.69,14.47-19.67,23.61-12.03,22.08-17.59,46.07-18.25,70.89-1.7,63.62-.38,127.28-.63,190.92-.18,44.65-.02,89.3.23,133.95.18,31.6,10.07,60.05,28.51,85.69,18.74,26.06,44.14,43.18,73.63,54.33,18.77,7.1,38.79,8.88,58.75,10.09,21.36,1.3,42.59.34,63.55-4.1,10.38-2.2,21-3.81,30.82-7.98,8.32-3.53,16.94-6.07,25.59-8.29,18.41-4.73,36.51,4.97,43.28,23.26,6.06,16.39.54,36.24-16.91,45.29-24.85,12.89-51.43,19.43-78.78,24.14-6.18,1.07-12.42-2.86-18.17,1.16ZM1317.95,984.57c3.06,1.7,6.5.67,9.74,1.44,16.88,3.98,34.12,5.06,51.37,5.71,32.29,1.22,64.44-.35,96.55-4.27,19.85-2.42,39.44-5.17,58.34-12.19,10.46-3.89,20.16-8.67,28.33-16.23,9.87-9.13,14.74-21.16,13.81-34-.89-12.24-6.32-23.8-13.98-33.73-14.55-18.84-32.06-34.49-51.83-47.77-11.59-7.78-23.39-15.51-33.75-24.77-13.3-11.89-24.7-25.66-29.74-43.48-1.06-13.63-.73-27.28-.49-40.93,8.09-10.34,8.97-23.24,12.25-35.24,2.52-9.25,1.95-19.2,4.11-28.36,4.29-18.22,6.79-36.64,7.87-55.16,1.42-24.27.74-48.58-3.66-72.65-5.94-32.45-16.59-62.99-35.05-90.6-11.04-16.51-25.07-30.03-40.26-42.61-5.17-4.28-10.9-7.6-16.23-11.56-13.41-9.98-20.92-23.74-26.26-39.17-3.94-11.36-9.38-22.17-16.74-31.68-24.18-31.24-54.46-54.33-91.6-68.46-17.8-6.77-35.75-10.24-54.74-7.52-3.36.48-6.46,1.38-9.47,2.91-18.74,9.5-31.01,24.49-38.53,43.97-4.86,12.59-6.67,25.64-8.52,38.86-3.3,23.61-3.28,47.07,1.81,70.36,2,9.12,5.41,17.91,11.14,25.47,21.85,28.79,48.86,51.16,82.2,65.59.52,6.65,5.33,10.3,9.92,14.04,13.67,11.13,26.83,22.58,38.58,35.98,38.99,44.49,64.41,95.77,78.32,152.84,5.82,23.88,9.07,48.38,9.3,73.05.36,39.95-14.02,73.88-42.6,101.89-13.54,13.27-29.38,22.64-46.7,29.99-9.41,3.99-10.17,7.06-3.98,14.76,14.06,17.48,24.61,37.05,34.76,56.89,4.47,8.73,5.03,9.05,15.71,6.65ZM1582.92,1139.65c.34-4.89-1.13-14.45-1.94-24.06-1.66-19.84-8.26-38.3-15.99-56.34-3.63-8.46-9.2-10.59-18.79-8.79-6.85,1.29-13.56,3.35-20.44,4.45-26.21,4.18-52.34,8.75-78.89,10.7-28.92,2.12-57.75,2.28-86.65,0-7.94-.63-15.97-.16-23.96-.24-4.15-.04-6.11,2.08-6.23,6.08-.08,2.66-.04,5.33-.09,7.99-.39,20.99,2.07,41.87,2.24,62.83.09,10.41,4.85,16.98,14.03,20.75,24.77,10.17,47.96,22.81,67.98,40.97,17.33,15.71,33.13,32.71,45.91,52.3,10.93,16.75,19.27,34.87,26.4,53.57,6.21,16.3,12.02,13.48,21.31,4.68,20.92-19.84,38.95-41.61,51.29-67.99,15.17-32.43,23.46-66.26,23.81-106.87Z"/>
          </g>
          <g>
            <path class="cls-4" d="M595.62,1312.86c26.4-10.28,48.85-26.75,70.21-44.9,9.26-7.87,15.08-17.01,15.18-30.01.12-15.33-7.85-24.98-19.55-32.5-9.67-6.21-19.93-3.88-29.78-.09-5.27,2.03-10.01,5.09-14.2,9.1-7.95,7.62-16.7,14.28-26.21,19.86-19.24,11.29-39.75,14.96-61.43,8.92-12.24-3.41-22.1-10.92-29.49-21.13-11.45-15.82-16.41-34.14-17.57-53.28-.87-14.26-3.09-28.53-1.97-42.85,1.93-24.82,1.82-49.78,7.04-74.38,5.2-24.46,14.86-47,27.57-68.15,11.31-18.82,24.55-36.41,40.83-51.45,21.18-19.56,44.64-35.46,71.08-47.3,13.83-6.2,27.88-10.7,42.72-12.99,24.04-3.71,43.36,4.45,57.19,24.3,15.4,22.11,22.05,47.47,25.65,73.79,1.4,10.24,2.16,20.51,2.16,30.86-.05,95.95-.11,191.9,0,287.86.01,14.13-1.32,28.08-6.33,41.23-10.02,26.32-23.25,50.36-45.13,69.47-22.52,19.67-47.68,33.76-75.88,42.79-13.33,4.27-27.3,5.63-41.12,7.34-29.02,3.6-57.56-1.18-86.26-4.78-14.57-1.83-28.24-7.19-42.88-8.42-29.71-2.5-47.31,20.06-39.25,47.95,2.98,10.3,11.76,16.77,21.86,20.55,14.06,5.25,28.64,8.3,43.47,10.6,14.7,2.28,29.5,4.17,43.91,8.08-.46,23.28-.98,46.55-1.34,69.83-.16,10.65.49,11.49,11.21,11.44,26.28-.11,52.56.93,78.81-1.87,45.82-4.88,89.45-16.73,129.97-39.09,1.76-.97,3.45-2.02,5.52-2.11,4.86,9.58,3.62,20.19,4.57,30.31,1.15,12.22.46,24.61.45,36.93,0,2.97-.36,5.96-.73,8.92-3.43,27.79-21.38,43.41-45.61,53.04-24.03,9.55-49.11,10.18-74.58,7.3-35.28-4-67.71-16.11-98.68-32.88-15.82-8.57-30.47-18.92-44.94-29.5-21.5-15.72-44.15-29.56-67.39-42.52-20.08-11.2-38.83-24.14-55.35-40.46-26.6-26.28-43.84-57.21-51.48-93.86-2.66-12.73-3.55-25.55-5.06-38.35,2.82.9,5.55,1.85,8.67,1.55,19.26-1.85,35.57-8.78,47.61-24.87,10-13.36,18.46-27.6,27.03-41.85,6.01-10,6.64-8.47,13.29-3.04,2.06,1.68,4.32,3.09,6.47,4.67,15.62,11.47,32.18,21.23,50.56,27.62,39.04,13.58,79.28,15.85,120.08,12.45,8.7-.72,8.78-.9,8.83-9.23.14-24.95.21-49.91.3-74.86Z"/>
            <path class="cls-4" d="M1426.15,1427.89c1.81,14.45.24,28.58-4.5,42.3-5.55,16.05-11.32,32.08-21.16,46.13-12.42,17.75-26.8,33.56-43.44,47.72-18.75,15.95-40.42,26.75-61.33,38.96-19.26,11.24-37.96,23.21-55.78,36.65-26.15,19.72-54.09,36.53-85.25,46.95-28.55,9.55-58.05,15.33-88.3,12.41-19.56-1.89-38.58-6.54-54.73-19.33-12.78-10.12-19.68-22.79-21.47-38.93-2.48-22.33-1.3-44.44,2.34-66.5,21.49,10.67,43.59,19.85,66.78,26.08,30.7,8.25,61.94,12.54,93.8,11.85,12.99-.28,26-.22,38.99-.33,1.67-.01,3.34.04,5-.1,12.59-1.08,14.36-2.99,13.29-15.37-1.64-18.96-.3-37.99-1.48-56.95q-.5-8.05-8.48-10.51c5.77-4.02,12-.1,18.19-1.16,27.34-4.71,53.92-11.25,78.78-24.14,17.46-9.05,22.98-28.9,16.91-45.29-6.76-18.29-24.87-27.99-43.28-23.26-8.65,2.22-17.27,4.76-25.59,8.29-9.82,4.16-20.44,5.78-30.82,7.98-20.96,4.44-42.2,5.41-63.55,4.1-19.95-1.22-39.98-3-58.75-10.09-29.48-11.15-54.89-28.28-73.63-54.33-18.44-25.64-28.33-54.09-28.51-85.69-.25-44.65-.41-89.3-.23-133.95.25-63.64-1.06-127.29.63-190.92.66-24.82,6.22-48.81,18.25-70.89,4.98-9.14,11.49-17.04,19.67-23.61,15.43-12.39,33.37-13.28,51.25-9.37,28.29,6.18,53.33,19.78,76.8,36.73,25.17,18.18,46.33,40.15,63.1,66,19.43,29.97,31.38,62.86,35.36,98.68,2.61,23.52,4.37,46.99,4.23,70.67-.13,21.28-4.43,41.73-11.84,61.38-7.27,19.28-20.39,34.49-39.1,43.56-10.19,4.94-21.72,5.52-33.14,4.68-21.36-1.56-39.59-11.52-57.07-22.4-21.61-13.45-52.46,2.25-54.83,27.85-1.2,12.97,3.79,24.74,15.02,33.12,14.03,10.47,30.23,16.68,45.76,24.24,7.32,3.56,15.22,5.43,22.79,8.27-2.78,1.9-3.24,4.71-3.28,7.83-.26,21.3.31,42.62-1.48,63.9-.66,7.88.83,8.97,9.34,9.03,13.66.1,27.34.35,40.97-.35,18.6-.96,37.17-2.8,55.25-7.72,15.38-4.19,30.14-9.93,44.31-17.32,10.96-5.72,21.78-11.62,30.46-20.49,4.02-4.1,9.08-6.63,13.16-10.53,2.84-2.71,5.09-1.47,7.42,1.37,4.26,5.2,7.24,11.14,10.75,16.78,8.96,14.43,18.11,28.74,30.42,40.66,6.06,5.86,12.91,10.54,21.33,12.18,6.84,1.33,13.78,2.15,20.68,3.2Z"/>
            <path class="cls-4" d="M1043.81,772.43c4.97-2.55,9.81-5.39,14.92-7.59,19.21-8.24,35.64-20.47,51.11-34.3,10.43-9.32,20.89-18.6,30.49-28.77,5.93-6.29,11.79-12.7,17.15-19.47,9.38-11.84,11.13-24.21,2.67-38.88-8-13.87-18.74-17.27-33.46-16.68-10.68.42-18.82,6.26-26.26,13.05-4.9,4.47-9.09,9.72-13.65,14.57-15.98,17.04-32.37,33.56-54.07,43.5-8.55,3.92-17.17,7.13-26.89,6.21-8.82-.84-13.5-4.35-15.39-12.92-1.36-6.17-2.09-12.43-2.08-18.82.15-102.29.22-204.59.28-306.88.03-53.65-.07-107.29.05-160.94.02-7.64.6-15.32,1.51-22.91,2.02-16.72,11.44-24.79,28.2-24.67,7.06.05,13.86,1.15,20.35,4.23,23.79,11.29,47.21,23.18,68.03,39.58,1.04.82,2.15,1.59,3.06,2.55,5.63,5.9,5.89,8.27.48,14.47-5.25,6.03-10.31,12.16-15.16,18.53-20.97,27.53-31.71,58.92-36.27,92.83-2.45,18.23-2.44,36.53-2.32,54.86.14,21.56,3.74,42.44,12.61,62.16,8.51,18.92,19.69,36.11,33.81,51.44,19.34,21.01,42.5,37.21,65.67,53.49,36.03,25.3,64.38,57.23,84.84,96.47,16.51,31.68,26.87,65.14,32.46,100.16,2.31,14.48,1.77,29.26.76,43.9-.44,6.39-3.44,11.95-6.93,17.42-18.33,28.74-44.82,38.88-77.85,35.51-9.87-1.01-18.66-4.16-27.4-8.52-22.02-10.99-44.28-21.5-68.22-27.79-14.51-3.81-29.35-5.49-44.27-6.64-3.54-.27-7.41.89-10.53-1.88-1.61-9.35-6.87-17.67-7.71-27.25Z"/>
            <path class="cls-4" d="M685.57,793.49c-17.89,1.77-35.29,5.87-52.65,10.45-23.03,6.07-43.97,16.93-65.24,27.13-11.17,5.36-22.79,9.73-35.2,10.14-31.32,1.03-61.93-11.94-73.52-44.95-4.5-12.82-4.55-26.34-2.98-39.52,2.95-24.73,7.99-49.06,16.35-72.67,17.23-48.68,45.88-89.02,86.28-121.23,17.96-14.32,37.49-26.42,55.39-40.85,34.49-27.81,59.22-61.87,69.33-105.47,2.32-9.99,3.61-20.35,4.08-30.59,1.02-21.97,1.75-44,.13-65.95-2.98-40.19-15.43-76.7-43.54-106.74-1.37-1.46-2.69-2.96-4-4.47-3.27-3.8-2.66-7.25,1.01-10.37,1.27-1.08,2.55-2.15,3.92-3.1,17.83-12.36,36.62-23.04,56.41-31.94,7.35-3.3,15.32-4.72,23.11-5.81,12.36-1.73,27.52,11.26,28.9,24.07.92,8.59,1.65,17.2,1.65,25.9-.09,144.31-.02,288.61-.09,432.92,0,14.65,1.18,29.3.09,43.96-1.18,15.93-6.27,19.66-21.99,16.68-8-1.52-15.21-4.61-21.98-8.91-21.21-13.46-39.96-29.81-56.99-48.23-5.19-5.62-10.68-11-16.38-16.1-15.56-13.94-40.79-13.84-56.38,5.46-10.29,12.74-9.47,27.52-2.96,37.67,1.79,2.79,3.64,5.64,5.93,8,26,26.79,52.51,52.99,84.44,72.94,6.39,3.99,11.88,9.36,18.87,12.48.17,9.76-2.72,19.32-1.97,29.13Z"/>
            <path class="cls-4" d="M1644.19,730.21c-12.28.8-18.57-7.56-25.47-14.57-1.85-1.88-1.08-5.14-.48-7.75,5.41-23.43,6.92-47.37,9.5-71.17.07-.66.15-1.33.16-1.99.09-9.84,4.64-14.77,14.34-18.54,20.73-8.06,40.79-17.97,60.76-27.86,13.58-6.73,22.27-17.49,23.53-33.47,1.45-18.42-10.51-36.12-27.65-43.12-12.96-5.29-24.19-1.45-35.57,3.31-9.49,3.98-18.58,8.9-27.91,13.28-8.1,3.8-10.67,2.69-11.11-6.96-.65-14.13-4.18-27.57-7.58-41.11-1.71-6.81-1.35-8.19,5.05-10.73,11.13-4.42,22.25-9.1,33.77-12.2,12.82-3.45,25.61-7.13,38.7-9.75,20.01-4.01,40.19-6.32,60.47-6.5,51.65-.47,103.31-.21,154.96-.17,9.1,0,9.6.41,8.04,9.92-2.96,18.11-8.19,35.68-14.37,52.9-13.33,37.2-31.49,71.91-55.11,103.65-27.21,36.55-60.45,66.44-100.03,89.04-27.41,15.66-57.19,24.92-88.07,30.79-5.54,1.05-10.84,3.48-15.92,3.01Z"/>
            <path class="cls-4" d="M295.74,744c-6.63-5.9-7.32-14.33-9.04-22.16-5.06-23.05-7.64-46.53-11.6-69.78-5.44-31.93-6.24-64.13-1.83-96.43,1.85-13.55,4.12-26.98,7.8-40.08,13.2-46.96,38.42-85.94,78.03-115.01,12.68-9.31,25.02-18.8,31.82-33.61,1.11-2.42,2.46-4.74,3.35-7.23,10.87-30.17,30.7-53.24,56.29-71.96,24.22-17.71,50.45-30.96,79.97-37.03,40.11-8.24,67.91,14.1,78.43,47.57,4.44,14.13,6.47,28.48,6.11,43.27-.45,18.94.57,37.85-2.45,56.77-4.31,26.99-19.39,46.97-39.48,63.85-13.75,11.55-28.34,22.07-43.41,31.87-5.58,3.63-11.37,6.87-18.02,8.19-.45-9.6-.02-19.6-3.93-28.4-11.05-24.92-41.55-33.95-63.84-20.84-6.61,3.89-12.62,8.59-18.08,14-43.23,42.93-76.88,92.32-99.67,148.88-13.2,32.76-21.07,66.97-26.88,101.78-1.47,8.79-.44,17.87-3.58,26.38Z"/>
            <path class="cls-4" d="M295.74,744c3.14-8.5,2.11-17.59,3.58-26.38,5.82-34.81,13.68-69.01,26.88-101.78,22.79-56.56,56.44-105.95,99.67-148.88,5.45-5.42,11.46-10.11,18.08-14,22.29-13.11,52.79-4.07,63.84,20.84,3.9,8.8,3.47,18.8,3.93,28.4-10.86,13.52-24.22,24.63-35.89,37.4-35.08,38.38-60.78,82.12-76.46,131.71-10.89,34.43-17.58,69.63-16.54,105.82,1.61,56.29,28.36,96.94,78.52,122.29,3.56,1.8,7.21,3.4,10.81,5.13,8.65,4.16,8.8,4.91,3.26,13.11-3.66,5.43-7.89,10.44-11.77,15.7-8.36,11.32-14.73,23.72-21.46,35.93-2.88,5.22-6.05,10.17-9.83,14.75-1.37,1.66-2.8,2.97-4.86.93-7.4-5.46-14.83-10.89-22.19-16.41-31.45-23.57-59.1-50.72-78.85-85.08-15.55-27.05-25.63-56.01-29.54-87.09-.65-5.18-.29-10.65-2.71-15.57l1.54-36.82Z"/>
            <path class="cls-4" d="M408.55,1108.98c0,10.99.05,21.98-.02,32.97-.06,9.2-3.61,15.36-13.04,18.8-36.78,13.38-67.37,36.17-92.98,65.31-21.01,23.91-37.02,51.13-47.42,81.43-1.18,3.45-2.45,6.92-4.1,10.17-3.06,6.02-5.04,6.6-11.07,3.47-1.74-.9-3.33-2.2-4.76-3.55-39.62-37.43-64.52-82.7-71.07-137.08-4.04-33.56-3.04-67.12,6.19-100,2.61-9.3,5.85-18.39,11.12-26.58,5.65-8.78,8.98-10.29,19.21-7.61,7.4,1.94,14.8,3.79,22.28,5.39,22.46,4.83,45.18,7.47,68,9.87,33.2,3.48,66.45,3.47,99.74,3.25,2-.01,4-.02,6,.03,10.66.26,12.32,1.78,12.47,12.17.14,10.66.03,21.32.03,31.98-.19,0-.38,0-.57,0Z"/>
            <path class="cls-4" d="M595.62,1312.86c-.1,24.95-.16,49.91-.3,74.86-.05,8.34-.12,8.51-8.83,9.23-40.8,3.4-81.03,1.12-120.08-12.45-18.38-6.39-34.94-16.15-50.56-27.62-2.14-1.57-4.41-2.99-6.47-4.67-6.65-5.42-7.28-6.96-13.29,3.04-8.57,14.25-17.03,28.49-27.03,41.85-12.04,16.09-28.35,23.02-47.61,24.87-3.13.3-5.86-.65-8.67-1.55-2.49-17.04.2-33.9,2.65-50.63,3.87-26.49,12.11-51.6,25.75-74.86,16.94-28.9,41.79-48.68,71.54-62.88,7.62-3.64,10.16-2.62,14.04,5.48,7.07,14.8,15.69,28.49,27.18,40.27,18.55,19,40.39,31.72,66.66,37.4,23.68,5.12,46.84,3.98,70.1-1.59,1.61-.38,3.27-.52,4.91-.77Z"/>
            <path class="cls-4" d="M294.2,780.83c2.42,4.92,2.05,10.39,2.71,15.57,3.91,31.08,14,60.04,29.54,87.09,19.75,34.36,47.39,61.52,78.85,85.08,7.36,5.52,14.8,10.95,22.19,16.41-17.26,3.43-34.79,4.4-52.26,5.86-16.93,1.41-33.97,1.64-50.84.02-14.87-1.43-29.84-.92-44.67-3.39-26.23-4.38-52.48-8.51-77.21-18.87-9.24-3.87-17.83-8.88-24.59-16.59-12.49-14.25-12.15-38.39-4.21-52.48,7.84-13.93,19.21-24.51,30.09-35.68,10.06-10.33,22.2-17.89,33.98-25.93,9.59-6.54,19.38-12.77,28.53-19.97,12.65-9.95,19.75-23.89,27.9-37.12Z"/>
            <path class="cls-4" d="M1224.63,498.47c-33.33-14.43-60.35-36.8-82.2-65.59-5.73-7.55-9.15-16.35-11.14-25.47-5.1-23.29-5.12-46.75-1.81-70.36,1.85-13.21,3.66-26.27,8.52-38.86,7.52-19.47,19.79-34.46,38.53-43.97,3.01-1.53,6.11-2.42,9.47-2.91,18.99-2.73,36.94.74,54.74,7.52,37.14,14.13,67.42,37.22,91.6,68.46,7.36,9.52,12.81,20.32,16.74,31.68,5.34,15.43,12.85,29.19,26.26,39.17,5.33,3.97,11.06,7.29,16.23,11.56,15.19,12.58,29.22,26.1,40.26,42.61,18.46,27.61,29.11,58.16,35.05,90.6,4.41,24.08,5.08,48.38,3.66,72.65-1.08,18.52-3.58,36.94-7.87,55.16-2.16,9.17-1.59,19.11-4.11,28.36-3.28,12-4.16,24.89-12.25,35.24-1.6-2.99-1.92-6.31-2.49-9.59-2.29-13.1-4.03-26.32-7.11-39.24-10.53-44.23-26.29-86.4-50.12-125.4-22.01-36.03-48.48-68.35-79.32-97.07-10.77-10.02-23.18-16.12-38.73-15.23-18.17,1.03-36.23,14.56-41.63,31.93-1.94,6.23-.78,12.59-2.27,18.73Z"/>
            <path class="cls-4" d="M1445.94,777.98c2.96,25.71-4.48,49.81-12.88,73.3-19.16,53.62-55.42,93.5-102.72,124.21-4.17,2.71-10.03,3.72-12.39,9.08-10.67,2.39-11.24,2.07-15.71-6.65-10.15-19.84-20.7-39.41-34.76-56.89-6.19-7.7-5.43-10.77,3.98-14.76,17.31-7.35,33.16-16.72,46.69-29.99,28.58-28.02,42.96-61.94,42.6-101.9-.23-24.67-3.48-49.17-9.3-73.05-13.91-57.07-39.34-108.35-78.32-152.84-11.75-13.4-24.92-24.85-38.58-35.98-4.59-3.74-9.4-7.39-9.92-14.04,1.49-6.14.33-12.5,2.27-18.73,5.4-17.36,23.45-30.89,41.63-31.92,15.55-.89,27.96,5.21,38.73,15.23,30.85,28.72,57.32,61.04,79.32,97.07,23.82,39.01,39.59,81.18,50.12,125.41,3.07,12.91,4.82,26.14,7.11,39.23.57,3.28.89,6.6,2.49,9.59-.24,13.65-.57,27.3.49,40.92-.3.89-.95,1.84-.85,2.71Z"/>
            <path class="cls-4" d="M1582.92,1139.65c-.34,40.61-8.64,74.44-23.81,106.87-12.34,26.39-30.37,48.15-51.29,67.99-9.29,8.81-15.1,11.62-21.31-4.68-7.13-18.71-15.47-36.82-26.4-53.57-12.78-19.58-28.58-36.59-45.91-52.3-20.02-18.15-43.21-30.8-67.98-40.97-9.19-3.77-13.95-10.34-14.03-20.75-.17-20.95-2.63-41.84-2.24-62.83.05-2.66.01-5.33.09-7.99.12-4,2.08-6.12,6.23-6.08,7.99.08,16.02-.39,23.96.24,28.9,2.29,57.73,2.13,86.65,0,26.55-1.95,52.68-6.52,78.89-10.7,6.87-1.1,13.59-3.16,20.44-4.45,9.58-1.8,15.16.33,18.79,8.79,7.73,18.05,14.32,36.51,15.99,56.34.81,9.61,2.28,19.17,1.94,24.06Z"/>
            <path class="cls-4" d="M1426.15,1427.89c-6.9-1.05-13.84-1.87-20.68-3.2-8.41-1.64-15.27-6.32-21.33-12.18-12.31-11.92-21.46-26.23-30.42-40.66-3.5-5.64-6.49-11.58-10.75-16.78-2.33-2.84-4.58-4.09-7.42-1.37-4.08,3.9-9.14,6.43-13.16,10.53-8.68,8.87-19.5,14.77-30.46,20.49-14.17,7.39-28.92,13.13-44.31,17.32-18.08,4.92-36.64,6.76-55.25,7.72-13.63.7-27.31.45-40.97.35-8.51-.06-10.01-1.14-9.34-9.03,1.79-21.29,1.22-42.6,1.48-63.9.04-3.12.49-5.93,3.28-7.83,11.99-.17,23.59,4.17,35.67,3.15,3.97-.34,7.96-.38,11.93-.56,1.05,1.09,1.88,1.11,2.36-.51,28.19-5.12,54.24-14.79,75.7-34.72,16.06-14.91,28.72-32.14,37.79-52.11,5.9-13,7.57-13.25,19.98-6.77,25.42,13.27,47.65,30.27,64.39,53.9,11.65,16.45,19.21,34.72,24.89,53.97,6.93,23.5,9.32,47.51,9.19,71.86-.02,3.6.43,7.42-2.57,10.33Z"/>
            <path class="cls-4" d="M1317.95,984.57c2.36-5.36,8.22-6.38,12.39-9.08,47.3-30.71,83.56-70.59,102.72-124.21,8.4-23.5,15.84-47.6,12.88-73.3-.1-.86.55-1.81.85-2.71,5.04,17.83,16.43,31.61,29.74,43.49,10.36,9.26,22.17,16.99,33.75,24.77,19.77,13.28,37.28,28.93,51.83,47.77,7.67,9.92,13.09,21.49,13.98,33.73.93,12.83-3.94,24.86-13.81,34-8.17,7.56-17.87,12.34-28.33,16.23-18.9,7.02-38.49,9.76-58.34,12.19-32.11,3.92-64.26,5.5-96.55,4.27-17.25-.65-34.49-1.73-51.37-5.71-3.23-.76-6.68.26-9.74-1.44Z"/>
            <path class="cls-4" d="M1196.79,1331.43c-.48,1.62-1.31,1.59-2.36.51-.82-1.12.01-1.63.85-1.82.87-.2,1.81-.04,1.51,1.32Z"/>
          </g>
        </g>
        <g>
          <g>
            <g>
              <path class="cls-1" d="M2677.51,1504.84c16.21.85,30.71,7.68,42.65,19.62,12.79,11.94,19.62,26.44,19.62,44.35s-6.82,34.12-19.62,46.06c-12.79,12.79-27.3,17.91-44.35,17.91h-4.26c-120.27,0-224.33-41.8-312.19-127.95-87-86.15-134.77-190.21-134.77-312.19V488.94c0-17.91,5.97-33.27,18.77-46.06,14.5-13.65,29.85-18.77,46.06-18.77s31.56,5.97,45.21,18.77c12.79,14.5,18.77,29.85,18.77,46.06v694.32c0,43.5,7.68,83.59,23.03,121.12,15.35,37.53,37.53,71.65,65.68,102.36l11.94,10.24c4.26,3.41,7.68,6.82,10.24,10.24,4.26,5.12,8.53,8.53,12.79,11.09.85.85,1.71,1.71,1.71,2.56.85.85,3.41,2.56,7.68,5.12,2.56,2.56,5.12,4.26,7.68,5.97l5.97,3.41,12.79,7.68c4.26,2.56,7.68,5.12,10.24,7.68,7.68,2.56,15.35,5.12,23.03,7.68s15.35,5.12,23.03,7.68l29.85,6.82c9.38,2.56,18.77,5.12,28.15,7.68l49.47,3.41.85.85Z"/>
              <path class="cls-1" d="M2935.11,740.57c18.77,0,36.68,8.53,52.88,26.44,2.56,4.26,5.12,9.38,7.68,15.35,2.56,5.97,3.41,13.65,3.41,23.03v763.41c0,9.38-.85,17.06-3.41,23.03-2.56,5.97-5.12,11.09-8.53,15.35-16.21,17.06-33.27,25.59-51.18,25.59-16.21,0-30.71-7.68-43.5-19.62-13.65-12.79-20.47-27.3-20.47-45.21v-763.41c0-17.91,6.82-31.56,20.47-44.35,12.79-11.94,27.3-19.62,43.5-19.62h-.85Z"/>
              <path class="cls-1" d="M4117.34,763.6c99.8,0,183.39,34.97,250.78,104.06,69.94,70.8,104.92,154.39,104.92,250.78v452.93c0,19.62-6.82,34.97-20.47,45.21-12.79,11.94-27.3,17.06-42.65,17.06-16.21,0-29.85-5.97-43.5-17.91-12.79-11.94-18.77-25.59-18.77-44.35v-452.93c0-63.97-22.18-117.71-66.53-162.07-45.21-46.06-99.8-69.09-163.77-69.09s-117.71,23.03-163.77,69.09c-45.21,45.21-68.24,98.09-68.24,162.07v452.93c0,17.06-5.97,31.56-17.91,44.35-11.94,12.79-26.44,17.91-44.35,17.91-15.35,0-29-4.26-40.94-15.35-13.65-11.94-20.47-26.44-20.47-46.91v-452.93c0-63.12-22.18-116.86-67.39-162.07-45.21-46.06-99.8-69.09-162.92-69.09s-117.71,23.88-162.92,69.09c-44.35,45.21-68.24,98.09-68.24,162.07v452.93c0,17.91-5.97,32.41-17.91,43.5-12.79,12.79-27.3,17.91-43.5,17.91-19.62,0-34.97-5.97-46.06-18.77-11.09-12.79-17.06-27.3-17.06-43.5v-458.05c0-97.24,36.68-179.98,105.77-247.36,69.94-68.24,153.54-102.36,249.92-102.36,74.21,0,141.59,20.47,202.16,62.27,17.91,12.79,34.97,26.44,51.18,41.8,16.21,15.35,29.85,31.56,40.94,47.77,12.79-17.91,26.44-34.97,41.8-50.33,15.35-15.35,31.56-28.15,49.47-40.09,61.41-40.94,128.8-62.27,201.3-62.27l-.85,1.71Z"/>
              <path class="cls-1" d="M5464.69,1186.68v7.68c0,2.56-.85,5.97-2.56,10.24l.85-.85c-8.53,30.71-29,46.06-60.56,46.06h-676.41c5.12,32.41,15.35,62.27,29.85,90.42,14.5,28.15,35.83,52.88,60.56,77.62,59.71,57.15,129.65,87,213.24,87,26.44,0,51.18-3.41,74.21-9.38,23.03-5.97,46.06-14.5,69.09-25.59h-.85c21.32-11.09,41.8-24.74,60.56-40.94,18.77-16.21,35.83-34.97,50.33-56.3,9.38-12.79,23.88-21.32,43.5-25.59h9.38c11.94,0,23.88,3.41,34.97,10.24,15.35,9.38,24.74,23.03,28.15,40.94.85,2.56,1.71,4.26,1.71,5.97v6.82c0,12.79-4.26,24.74-11.94,35.83-19.62,28.15-42.65,53.74-69.09,76.77-26.44,23.03-55.44,42.65-86.15,58.86-63.97,33.27-131.36,50.33-202.16,50.33-118.56,0-222.63-40.94-308.78-127.95-86.15-87-127.09-190.21-127.09-307.92v-12.79c0-116.86,46.91-218.36,132.21-301.1,84.44-82.74,186.8-122.83,303.66-122.83s220.07,40.09,304.51,122.83c41.8,40.94,73.36,87.86,95.53,138.18,22.18,50.33,34.97,105.77,34.97,166.33v1.71l-1.71-2.56ZM5330.78,1126.12c-7.68-29.85-19.62-58-35.83-84.44-16.21-26.44-34.12-51.18-56.3-71.65-28.15-26.44-61.41-45.21-97.24-58.86-35.83-13.65-73.36-20.47-112.59-20.47-77.62,0-146.71,27.3-208.13,81.89v-.85c-46.91,43.5-77.62,95.53-92.12,156.09h601.35l.85-1.71Z"/>
            </g>
            <path class="cls-1" d="M2886.08,649.94c-14.46-14.46-22.83-29.68-22.83-50.22v-19.02c0-20.55,8.37-36.53,22.83-50.22,13.7-12.18,29.68-19.02,49.46-19.02s35.76,6.85,49.46,19.02c14.46,13.7,22.83,30.44,22.83,51.74v18.26c0,21.31-8.37,38.81-25.11,52.51-6.09,5.33-12.94,9.13-21.31,12.18-8.37,3.04-16.74,4.57-25.11,4.57-19.78,0-36.53-6.09-49.46-19.02l-.76-.76Z"/>
          </g>
          <text class="cls-5" transform="translate(5466.4 1608.44)"><tspan x="0" y="0">mkt</tspan></text>
        </g>
      </g>
    </g>
  </g>
</svg>